<svg xmlns="http://www.w3.org/2000/svg" viewBox="0 0 249.8 219.18"><defs><style>.cls-1{fill:#4a374b;}.cls-1,.cls-2{fill-rule:evenodd;}.cls-2{fill:#866668;}</style></defs><g id="Layer_2" data-name="Layer 2"><g id="Layer_1-2" data-name="Layer 1"><polygon class="cls-1" points="217.39 65.48 29.1 65.48 29.1 75.48 217.39 75.48 217.39 65.48 217.39 65.48"/><polygon class="cls-2" points="232.36 22.29 14.13 22.29 29.1 40.25 217.39 40.25 232.36 22.29 232.36 22.29"/><path class="cls-1" d="M249.8,0C167.17,12.82,84,13.56,0,0A107.88,107.88,0,0,0,21.54,31.6H224.88c12.45-8.26,20-19.17,24.92-31.6Z"/><path class="cls-1" d="M28.67,197.36H14.13v21.73H24.84l0,.09h17v-.09H51V197.36H45.6L73.8,36.91,57.47,34,28.67,197.36Zm184.88,0h11.33v21.73h-7.5v.09l-16.25-.09H188V197.36h9.22L168.41,36.91,184.75,34l28.8,163.33Z"/><path class="cls-2" d="M51,166.82H34.05l-5.38,30.54H45.6L51,166.82Zm157.19,0,5.39,30.54H197.24l-5.49-30.54Z"/><polygon class="cls-2" points="132.36 40.25 115.12 40.25 115.12 75.48 132.36 75.48 132.36 40.25 132.36 40.25"/><path class="cls-2" d="M36.42,65.63c5.15-.68,10,1.83,14.8,5.38,7.66,5.73,14.86,14.17,21.71,18.19C91.21,99.93,116.8,87.94,120,66.67a1.47,1.47,0,1,0-2.91-.43C114.18,85.51,91,96.38,74.43,86.65c-6.77-4-13.88-12.34-21.45-18-5.41-4-11.07-6.71-16.95-5.93a1.47,1.47,0,1,0,.39,2.92Z"/><polygon class="cls-2" points="90.77 91.21 84.05 91.21 84.05 101.68 90.77 101.68 90.77 91.21 90.77 91.21"/><polygon class="cls-2" points="105.77 92.06 99.07 91.64 98.42 102.08 105.12 102.5 105.77 92.06 105.77 92.06"/><polygon class="cls-2" points="102.96 89.49 102.05 89.43 101.85 92.39 102.76 92.45 102.96 89.49 102.96 89.49"/><polygon class="cls-2" points="116.89 81.74 110.38 83.38 112.94 93.53 119.45 91.89 116.89 81.74 116.89 81.74"/><polygon class="cls-2" points="113.44 80.15 112.55 80.37 113.26 83.25 114.15 83.03 113.44 80.15 113.44 80.15"/><polygon class="cls-2" points="71.47 89.3 65.15 87.03 61.62 96.89 67.94 99.15 71.47 89.3 71.47 89.3"/><polygon class="cls-2" points="69.49 86.05 68.63 85.74 67.61 88.53 68.47 88.84 69.49 86.05 69.49 86.05"/><polygon class="cls-2" points="48.59 72 44.15 66.96 36.3 73.88 40.74 78.92 48.59 72 48.59 72"/><polygon class="cls-2" points="48.42 68.19 47.81 67.51 45.58 69.45 46.19 70.14 48.42 68.19 48.42 68.19"/><path class="cls-2" d="M211,66.32c-5.16-.68-10.06,1.83-14.8,5.37-7.66,5.73-14.87,14.18-21.72,18.2-18.28,10.72-43.87-1.27-47-22.53a1.48,1.48,0,1,1,2.92-.44C133.23,86.2,156.42,97.06,173,87.34c6.77-4,13.87-12.35,21.44-18,5.41-4,11.07-6.71,16.95-5.93a1.47,1.47,0,0,1-.38,2.92Z"/><polygon class="cls-2" points="156.65 91.9 163.36 91.9 163.36 102.36 156.65 102.36 156.65 91.9 156.65 91.9"/><polygon class="cls-2" points="141.64 92.74 148.34 92.32 149 102.77 142.3 103.19 141.64 92.74 141.64 92.74"/><polygon class="cls-2" points="144.45 90.18 145.36 90.12 145.56 93.07 144.65 93.13 144.45 90.18 144.45 90.18"/><polygon class="cls-2" points="130.52 82.43 137.03 84.06 134.48 94.21 127.97 92.58 130.52 82.43 130.52 82.43"/><polygon class="cls-2" points="133.98 80.84 134.87 81.06 134.15 83.93 133.27 83.71 133.98 80.84 133.98 80.84"/><polygon class="cls-2" points="175.94 89.99 182.26 87.72 185.79 97.57 179.47 99.84 175.94 89.99 175.94 89.99"/><polygon class="cls-2" points="177.93 86.74 178.79 86.43 179.8 89.21 178.94 89.53 177.93 86.74 177.93 86.74"/><polygon class="cls-2" points="198.83 72.68 203.27 67.65 211.12 74.57 206.68 79.6 198.83 72.68 198.83 72.68"/><polygon class="cls-2" points="199 68.88 199.6 68.19 201.83 70.14 201.23 70.83 199 68.88 199 68.88"/></g></g></svg>