<svg xmlns="http://www.w3.org/2000/svg" xmlns:xlink="http://www.w3.org/1999/xlink" viewBox="0 0 536.75 285.25"><defs><style>.cls-1{fill:url(#linear-gradient);}.cls-2{opacity:0.38;fill:url(#linear-gradient-2);}.cls-3{fill:url(#linear-gradient-3);}.cls-4{fill:url(#linear-gradient-4);}.cls-5{fill:url(#linear-gradient-5);}.cls-6{fill:url(#linear-gradient-6);}.cls-7{fill:url(#linear-gradient-7);}.cls-8{fill:url(#linear-gradient-8);}.cls-9{fill:url(#linear-gradient-9);}.cls-10{fill:url(#linear-gradient-10);}.cls-11{fill:url(#linear-gradient-11);}.cls-12{fill:url(#linear-gradient-12);}.cls-13{fill:url(#linear-gradient-13);}.cls-14{fill:url(#linear-gradient-14);}.cls-15{fill:url(#linear-gradient-15);}</style><linearGradient id="linear-gradient" x1="269" y1="158.62" x2="269" y2="42.04" gradientUnits="userSpaceOnUse"><stop offset="0.08" stop-color="#f2989b"/><stop offset="1" stop-color="#745a81"/></linearGradient><linearGradient id="linear-gradient-2" x1="267.75" y1="150.86" x2="267.75" y2="279.13" gradientUnits="userSpaceOnUse"><stop offset="0.17" stop-color="#905e7c"/><stop offset="0.35" stop-color="#ad6d85" stop-opacity="0.7"/><stop offset="0.55" stop-color="#cb7d8d" stop-opacity="0.4"/><stop offset="0.74" stop-color="#e08994" stop-opacity="0.18"/><stop offset="0.89" stop-color="#ed9098" stop-opacity="0.05"/><stop offset="1" stop-color="#f29299" stop-opacity="0"/></linearGradient><linearGradient id="linear-gradient-3" x1="197.33" y1="53.44" x2="197.33" y2="119.9" gradientUnits="userSpaceOnUse"><stop offset="0.28" stop-color="#754678"/><stop offset="1" stop-color="#866384" stop-opacity="0"/></linearGradient><linearGradient id="linear-gradient-4" x1="454.3" y1="37.31" x2="454.3" y2="140.19" xlink:href="#linear-gradient-3"/><linearGradient id="linear-gradient-5" x1="317.53" y1="108.14" x2="422.56" y2="108.14" xlink:href="#linear-gradient-3"/><linearGradient id="linear-gradient-6" x1="346.91" y1="116.85" x2="346.91" y2="156.05" gradientUnits="userSpaceOnUse"><stop offset="0" stop-color="#2c5949"/><stop offset="0.25" stop-color="#2f5a4a"/><stop offset="0.39" stop-color="#375e4f"/><stop offset="0.51" stop-color="#456657"/><stop offset="0.62" stop-color="#597063"/><stop offset="0.72" stop-color="#747d71"/><stop offset="0.81" stop-color="#948d84"/><stop offset="0.89" stop-color="#baa199"/><stop offset="0.97" stop-color="#e5b7b2"/><stop offset="1" stop-color="#f6bfbb"/></linearGradient><linearGradient id="linear-gradient-7" x1="397.98" y1="115.71" x2="397.98" y2="147.71" gradientUnits="userSpaceOnUse"><stop offset="0" stop-color="#284242"/><stop offset="0.89" stop-color="#1a2b2b"/></linearGradient><linearGradient id="linear-gradient-8" x1="463.98" y1="126.73" x2="463.98" y2="151.05" xlink:href="#linear-gradient-7"/><linearGradient id="linear-gradient-9" x1="321.8" y1="116.58" x2="321.8" y2="143.48" xlink:href="#linear-gradient-7"/><linearGradient id="linear-gradient-10" x1="361.37" y1="126.79" x2="361.37" y2="131.98" xlink:href="#linear-gradient-7"/><linearGradient id="linear-gradient-11" x1="214.67" y1="124.88" x2="214.67" y2="124.94" xlink:href="#linear-gradient-7"/><linearGradient id="linear-gradient-12" x1="225.85" y1="119.91" x2="225.85" y2="132.3" xlink:href="#linear-gradient-7"/><linearGradient id="linear-gradient-13" x1="271.74" y1="115.71" x2="271.74" y2="134.71" xlink:href="#linear-gradient-7"/><linearGradient id="linear-gradient-14" x1="346.91" y1="126.94" x2="346.91" y2="178.48" gradientUnits="userSpaceOnUse"><stop offset="0" stop-color="#3c5e4f"/><stop offset="1" stop-color="#f19097" stop-opacity="0"/></linearGradient><linearGradient id="linear-gradient-15" x1="440.63" y1="33.47" x2="536.75" y2="33.47" gradientUnits="userSpaceOnUse"><stop offset="0" stop-color="#faf2f0"/><stop offset="1" stop-color="#f5bcbf"/></linearGradient></defs><g id="Layer_2" data-name="Layer 2"><g id="OBJECTS"><path class="cls-1" d="M536.75,142.87H1.25s81.73-27,98-38.81,62.34-12.37,81.47-11.25,66.95-1.69,98.45-8.44,63-11.25,78.47-11.81L536.75,0Z"/><path class="cls-2" d="M535.5,142.37H0s81.72,27,98,38.81,62.34,12.38,81.47,11.25,66.94,1.69,98.44,8.44,63,11.25,78.48,11.81L535.5,285.25Z"/><path class="cls-3" d="M236.38,121.31c24.66-7.08,49.12-28.87,68.25-35.62s36.75-4.88,48-6.38S378.3,64.18,393.4,58.06h0l-35.8,14.5c-15.46.56-47,5.06-78.47,11.81s-79.32,9.57-98.45,8.44-65.24-.56-81.47,11.25-98,38.81-98,38.81H207.5S211.71,128.39,236.38,121.31Z"/><path class="cls-4" d="M536.75,142.87V35.4H479.38a489.38,489.38,0,0,0-35.8,40.26c-17.52,22.21-38.17,30.09-38.17,30.09l-33.56,37.12Z"/><path class="cls-5" d="M317.53,142.87H356c15-14.1,55.19-52.42,66.55-69.46-19.12,19.4-63.28,37.21-63.28,37.21Z"/><path class="cls-6" d="M492.13,142.87l-9-4.31s-13.88,2.44-17.82-2.25c0,0-3.75.56-6-2.25-2.62.94-5.62,2.81-6.56.94s-.56-1.88-2.06-2.63-3.94-1.31-4.31-3.37-4.32-7.88-4.88-5.63c-.37,5.63-3.19,7.69-4.69,4.69-.56,3.75-4.12,4.5-6.18,2.63s-6.57,3.43-8.82,2.56c-1.5,2.5-3.56,3.81-5.25,1.56a6.59,6.59,0,0,0-3.18-2.62s-3.57-6-7.5-5.25-4.5-.38-5.82-1.13-1.87-2.52-3.93-2.94-4.66-2.5-4.3-5.12c-4.14-1.13-5.64-7.13-5.64-7.13s-2.06,6-5.06,6.75c.75,2.82-2.63,5.25-3.94,4.13-.19,5.06-.38,6.37-3.94,7.31s-5.81.38-7.12-1.69-8.44-.75-8.44-.75-.56,4.69-2.25,3c-1.5,3.38-8.25,5.63-10.13,2.82-3.93.18-6.75-5.07-6.75-5.07s-9.75,1.13-12.37-2.81c-3.94.94-9,1.5-10.88.56s-4.12-2.06-4.5-4.31-.93-8.25-.93-8.25-4.13,3.94-7.32,3.94-1.5,4.12-1.5,4.12-3,.19-3.75,2.44a7.18,7.18,0,0,0,0,4.31s-4.68-1.31-6.56,0-3.19-3.75-3.19-3.75-6.18,4.13-8.62,1.69-7.13-3.75-7.13-3.75-3.93.94-4.68-2.44a46.08,46.08,0,0,1-.94-6.18s-3.94,6.93-8.06,6.56c-.19,3-7.13,2.44-7.13,2.44l-4.5,3.75a60.94,60.94,0,0,1-6,1.68c-2.06.38-7.69-3.18-9-5.62-.94,2.62-6.75,2.44-6.75,2.44l-5.44-6s-1.31,7.68-4.87,6.93c-2.44,2.63-12.75,18-12.75,18Z"/><path class="cls-7" d="M381.12,119c-.15,2.5,2.33,4.45,4.32,4.86s2.62,2.2,3.94,3,1.87,1.87,5.81,1.12,7.5,5.25,7.5,5.25a6.7,6.7,0,0,1,3.19,2.63c1.68,2.25,3.75.93,5.25-1.57.95.37,2.31-.37,3.72-1.21a4.47,4.47,0,0,0-1.47-.83s-3.57-6-7.5-5.25-4.5-.38-5.82-1.13-1.87-2.52-3.93-2.94-4.66-2.5-4.3-5.12c-4.14-1.13-5.64-7.13-5.64-7.13s-2.06,6-5.06,6.75A3.06,3.06,0,0,1,381.12,119Z"/><path class="cls-8" d="M440,133.36c1.5.75,1.13.75,2.06,2.62s3.94,0,6.57-.93c2.25,2.81,6,2.25,6,2.25,3.93,4.68,17.81,2.25,17.81,2.25l6.95,3.32h12.74l-9-4.31s-13.88,2.44-17.82-2.25c0,0-3.75.56-6-2.25-2.62.94-5.62,2.81-6.56.94s-.56-1.88-2.06-2.63-3.94-1.31-4.31-3.37-4.32-7.88-4.88-5.63c-.37,5.63-3.19,7.69-4.69,4.69a4.61,4.61,0,0,1-1,2.34C436.44,132.11,438.61,132.66,440,133.36Z"/><path class="cls-9" d="M300,120.58c0,.36.1.69.15,1,.37,2.25,2.62,3.37,4.5,4.31s6.93.37,10.87-.56c2.63,3.93,12.38,2.81,12.38,2.81s2.81,5.25,6.75,5.06c1.56,2.35,6.51,1.17,9-1.25-3-1-5.05-4.8-5.05-4.8s-9.75,1.13-12.37-2.81c-3.94.94-9,1.5-10.88.56s-4.12-2.06-4.5-4.31-.93-8.25-.93-8.25-4.13,3.94-7.32,3.94-1.5,4.12-1.5,4.12A6.74,6.74,0,0,0,300,120.58Z"/><path class="cls-10" d="M362.56,129.8c2.11-.56,3-1.25,3.48-2.77-1.49-1.91-8.35-.66-8.35-.66a7.67,7.67,0,0,1-1,3.06C358.05,130.36,360,130.48,362.56,129.8Z"/><path class="cls-11" d="M215,124.91a2.24,2.24,0,0,1-.51,0l0,0Z"/><path class="cls-12" d="M220.81,122.48c1.32,2.44,6.94,6,9,5.63a62.1,62.1,0,0,0,6-1.69l.71-.58c-2.1-1.19-4.27-3-5-4.34-.94,2.62-6.75,2.44-6.75,2.44l-5.44-6s-1.13,6.6-4.13,7C216.91,124.81,220.14,124.38,220.81,122.48Z"/><path class="cls-13" d="M261.13,122.3s4.68,1.31,7.12,3.75,8.63-1.69,8.63-1.69,1.31,5.06,3.18,3.75,6.57,0,6.57,0a7.31,7.31,0,0,1-.05-4.14c-1.84,1-5.8,2.93-7.64,1.09-2.44-2.44-7.13-3.75-7.13-3.75s-3.93.94-4.68-2.44a46.08,46.08,0,0,1-.94-6.18s-3.94,6.93-8.06,6.56a2.05,2.05,0,0,1-1.27,1.68C258.11,123,261.13,122.3,261.13,122.3Z"/><path class="cls-14" d="M492.13,142.87l-9,4.32s-13.88-2.44-17.82,2.25c0,0-3.75-.57-6,2.25-2.62-.94-5.62-2.82-6.56-.94s-.56,1.87-2.06,2.62-3.94,1.32-4.31,3.38-4.32,7.87-4.88,5.62c-.37-5.62-3.19-7.68-4.69-4.68-.56-3.75-4.12-4.5-6.18-2.63s-6.57-3.43-8.82-2.56c-1.5-2.5-3.56-3.81-5.25-1.56a6.59,6.59,0,0,1-3.18,2.62s-3.57,6-7.5,5.25-4.5.38-5.82,1.13-1.87,2.52-3.93,2.94-4.66,2.49-4.3,5.12c-4.14,1.12-5.64,7.12-5.64,7.12s-2.06-6-5.06-6.75c.75-2.81-2.63-5.25-3.94-4.12-.19-5.06-.38-6.38-3.94-7.31s-5.81-.38-7.12,1.68-8.44.75-8.44.75-.56-4.68-2.25-3c-1.5-3.37-8.25-5.62-10.13-2.81-3.93-.19-6.75,5.06-6.75,5.06s-9.75-1.12-12.37,2.82c-3.94-.94-9-1.5-10.88-.57s-4.12,2.07-4.5,4.32-.93,8.25-.93,8.25-4.13-3.94-7.32-3.94-1.5-4.13-1.5-4.13-3-.18-3.75-2.43a7.22,7.22,0,0,1,0-4.32s-4.68,1.32-6.56,0-3.19,3.75-3.19,3.75-6.18-4.12-8.62-1.68-7.13,3.75-7.13,3.75-3.93-.94-4.68,2.43a46.33,46.33,0,0,0-.94,6.19s-3.94-6.94-8.06-6.56c-.19-3-7.13-2.44-7.13-2.44l-4.5-3.75s-3.94-1.31-6-1.69-7.69,3.19-9,5.63c-.94-2.63-6.75-2.44-6.75-2.44l-5.44,6s-1.31-7.69-4.87-6.94c-2.44-2.62-12.75-18-12.75-18Z"/><path class="cls-15" d="M444,37.57c-7.11,2.88-2.87,8.27,11.75,4.62-11.81,7-.37,17,17.16,5.34-6.1,11.67,8.53,19.41,24.19,3.09-5.72,16.32,15.46,16.32,25.31,1.69,1,12,14.34,14.63,14.34,14.63V0Z"/></g></g></svg>