<svg xmlns="http://www.w3.org/2000/svg" xmlns:xlink="http://www.w3.org/1999/xlink" viewBox="0 0 341.9 373.99"><defs><style>.cls-1,.cls-14{opacity:0.51;}.cls-1{fill:url(#linear-gradient);}.cls-2{fill:#ffefff;opacity:0.21;}.cls-3{fill:url(#linear-gradient-2);}.cls-4{fill:#680f3a;}.cls-5{fill:url(#linear-gradient-3);}.cls-6{fill:#d6235b;}.cls-7{fill:#f72d67;}.cls-8{fill:url(#linear-gradient-4);}.cls-9{fill:url(#linear-gradient-5);}.cls-10{fill:url(#linear-gradient-6);}.cls-11{fill:url(#linear-gradient-7);}.cls-12{fill:url(#linear-gradient-8);}.cls-13{fill:url(#linear-gradient-9);}.cls-14{fill:url(#linear-gradient-10);}.cls-15{fill:url(#linear-gradient-11);}.cls-16{fill:url(#linear-gradient-12);}.cls-17{fill:url(#linear-gradient-13);}.cls-18{fill:url(#linear-gradient-14);}.cls-19{fill:url(#linear-gradient-15);}.cls-20{fill:url(#linear-gradient-16);}.cls-21{fill:url(#linear-gradient-17);}.cls-22{fill:url(#linear-gradient-18);}.cls-23{fill:url(#linear-gradient-19);}.cls-24{fill:url(#linear-gradient-20);}.cls-25{fill:url(#linear-gradient-21);}.cls-26{fill:url(#linear-gradient-22);}</style><linearGradient id="linear-gradient" x1="51.95" y1="272.04" x2="78.38" y2="351.74" gradientUnits="userSpaceOnUse"><stop offset="0" stop-color="#ff4564"/><stop offset="1" stop-color="#ff4564" stop-opacity="0"/></linearGradient><linearGradient id="linear-gradient-2" x1="98.06" y1="147.84" x2="118.9" y2="147.84" gradientUnits="userSpaceOnUse"><stop offset="0.17" stop-color="#9e1346"/><stop offset="0.38" stop-color="#be1a52"/><stop offset="0.63" stop-color="#dd215d"/><stop offset="0.85" stop-color="#f02564"/><stop offset="1" stop-color="#f72767"/></linearGradient><linearGradient id="linear-gradient-3" x1="31.73" y1="314.24" x2="31.73" y2="266.24" xlink:href="#linear-gradient-2"/><linearGradient id="linear-gradient-4" x1="80.42" y1="206" x2="116.38" y2="206" gradientUnits="userSpaceOnUse"><stop offset="0.17" stop-color="#9e1346"/><stop offset="1" stop-color="#f72767"/></linearGradient><linearGradient id="linear-gradient-5" x1="74.68" y1="314.77" x2="74.68" y2="212.38" xlink:href="#linear-gradient-2"/><linearGradient id="linear-gradient-6" x1="65.8" y1="178.41" x2="80.67" y2="178.41" xlink:href="#linear-gradient-4"/><linearGradient id="linear-gradient-7" x1="81.28" y1="58.32" x2="81.28" y2="83.03" xlink:href="#linear-gradient-4"/><linearGradient id="linear-gradient-8" x1="26.19" y1="134.52" x2="60.43" y2="134.52" xlink:href="#linear-gradient-2"/><linearGradient id="linear-gradient-9" x1="60.79" y1="259.25" x2="89.26" y2="259.25" xlink:href="#linear-gradient-4"/><linearGradient id="linear-gradient-10" x1="-151.85" y1="272.04" x2="-125.41" y2="351.74" gradientTransform="matrix(-1, 0, 0, 1, 138.1, 0)" xlink:href="#linear-gradient"/><linearGradient id="linear-gradient-11" x1="-105.74" y1="147.84" x2="-84.89" y2="147.84" gradientTransform="matrix(-1, 0, 0, 1, 138.1, 0)" xlink:href="#linear-gradient-2"/><linearGradient id="linear-gradient-12" x1="-172.07" y1="314.24" x2="-172.07" y2="266.24" gradientTransform="matrix(-1, 0, 0, 1, 138.1, 0)" xlink:href="#linear-gradient-2"/><linearGradient id="linear-gradient-13" x1="-123.38" y1="206" x2="-87.42" y2="206" gradientTransform="matrix(-1, 0, 0, 1, 138.1, 0)" xlink:href="#linear-gradient-4"/><linearGradient id="linear-gradient-14" x1="-129.12" y1="314.77" x2="-129.12" y2="212.38" gradientTransform="matrix(-1, 0, 0, 1, 138.1, 0)" xlink:href="#linear-gradient-2"/><linearGradient id="linear-gradient-15" x1="-137.99" y1="178.41" x2="-123.13" y2="178.41" gradientTransform="matrix(-1, 0, 0, 1, 138.1, 0)" xlink:href="#linear-gradient-4"/><linearGradient id="linear-gradient-16" x1="-122.51" y1="58.32" x2="-122.51" y2="83.03" gradientTransform="matrix(-1, 0, 0, 1, 138.1, 0)" xlink:href="#linear-gradient-4"/><linearGradient id="linear-gradient-17" x1="-177.6" y1="134.52" x2="-143.37" y2="134.52" gradientTransform="matrix(-1, 0, 0, 1, 138.1, 0)" xlink:href="#linear-gradient-2"/><linearGradient id="linear-gradient-18" x1="-143.01" y1="259.25" x2="-114.54" y2="259.25" gradientTransform="matrix(-1, 0, 0, 1, 138.1, 0)" xlink:href="#linear-gradient-4"/><linearGradient id="linear-gradient-19" x1="170.95" y1="21.21" x2="170.95" y2="39.21" gradientUnits="userSpaceOnUse"><stop offset="0" stop-color="#9e1346"/><stop offset="0.26" stop-color="#be1a52"/><stop offset="0.56" stop-color="#dd215d"/><stop offset="0.82" stop-color="#f02564"/><stop offset="1" stop-color="#f72767"/></linearGradient><linearGradient id="linear-gradient-20" x1="170.95" y1="55.43" x2="170.95" y2="68.56" xlink:href="#linear-gradient-2"/><linearGradient id="linear-gradient-21" x1="170.92" y1="62.7" x2="170.92" y2="71.58" gradientUnits="userSpaceOnUse"><stop offset="0.17" stop-color="#9e1346"/><stop offset="0.32" stop-color="#a71549"/><stop offset="0.57" stop-color="#c01b53"/><stop offset="0.9" stop-color="#e82462"/><stop offset="1" stop-color="#f72767"/></linearGradient><linearGradient id="linear-gradient-22" x1="170.95" y1="21.78" x2="170.95" y2="56.28" gradientUnits="userSpaceOnUse"><stop offset="0.17" stop-color="#9e1346"/><stop offset="0.39" stop-color="#b1174d"/><stop offset="0.84" stop-color="#e42360"/><stop offset="1" stop-color="#f72767"/></linearGradient></defs><g id="Layer_2" data-name="Layer 2"><g id="OBJECTS"><path class="cls-1" d="M65.11,374l-5.52-87.66c-.05-1.33,6.22-2.4,14-2.4s14.14,1.07,14.18,2.4L88.49,374Zm-23.2,0-8.08-75.34c0-.94-4.86-1.71-10.76-1.71s-10.62.77-10.56,1.71L23.12,374Zm73.16,0,2.1-94.15c0-.66-3.37-1.2-7.51-1.2s-7.46.54-7.45,1.2l.61,94.15Z"/><ellipse class="cls-2" cx="23.47" cy="300.52" rx="19.23" ry="4.97"/><path class="cls-2" d="M94.67,286.91c0,2.75-9.24,5-20.63,5s-20.62-2.22-20.62-5,9.23-5,20.62-5S94.67,284.17,94.67,286.91Z"/><path class="cls-2" d="M121.14,280c0,1.75-5.13,3.17-11.45,3.17S98.25,281.74,98.25,280s5.12-3.16,11.44-3.16S121.14,278.24,121.14,280Z"/><polygon class="cls-3" points="98.06 150.3 108.71 143.53 118.9 152.16 98.06 150.3"/><path class="cls-4" d="M103.18,153.78s-1.11-1.82-5.12-3.48l10.75-2,10.09,3.9s-3.46.32-4.63,1.62Z"/><path class="cls-4" d="M60.43,140.25a19.44,19.44,0,0,0-9.48,1.2H35s.31-2.59-8.78-5.16l17.65-4.13Z"/><path class="cls-5" d="M43,139.86c-4.41,0-8,.72-8.07,1.59,0,0,0,0,0,.06L12.51,301c-.06.94,4.67,1.7,10.56,1.7s10.71-.76,10.76-1.7L51,141.45C51,140.58,47.45,139.86,43,139.86Z"/><path class="cls-6" d="M114.36,154.06c0-.84-2.49-1.52-5.61-1.52s-5.66.68-5.68,1.52h0L102.21,280c0,.67,3.32,1.2,7.45,1.2s7.5-.53,7.51-1.2Z"/><path class="cls-7" d="M80.42,249.7q20.56-2.17,41.24-3.76l.19-10.57q-20.53.75-41,2.1Z"/><path class="cls-7" d="M83.34,162.31,83,173.85q19.92,1.28,40,2l.18-10Q103.12,164.36,83.34,162.31Z"/><path class="cls-8" d="M96.19,248.13q-7.89.75-15.77,1.57l.4-12.23q9.17-.6,18.33-1.08ZM83.34,162.31,83,173.85c10.49.67,4.14.33,14.69.78L102.21,164C90.92,163.13,94.54,163.46,83.34,162.31Z"/><path class="cls-9" d="M89.76,42.42H75L59.59,287c-.05,1.33,6.22,2.41,14,2.41S87.74,288.3,87.78,287Z"/><polygon class="cls-4" points="65.46 54.49 74.55 49.47 89.69 50.4 98.34 57.67 81.77 59.45 65.46 54.49"/><path class="cls-10" d="M80.67,174s-7.54,1.15-14.87,14.32l1.25-19.88Z"/><path class="cls-11" d="M89.41,85.58l.15-18.46-16-1.34L73,74C76.09,75.14,82.67,78.24,89.41,85.58Z"/><path class="cls-4" d="M91.61,47.46,72.49,46.34A2.4,2.4,0,0,1,70.11,44l.33-8.09,24.3,1.42-.24,7.79A2.64,2.64,0,0,1,91.61,47.46Z"/><path class="cls-6" d="M80.67,174H68.24s-36-2.71-62.41-6l.93-14.54H19.4Z"/><path class="cls-6" d="M78.48,237.64H64.77S18.39,241.36,1,244l-1,15.6H13.16Z"/><path class="cls-12" d="M26.19,136.29s13.82-5.1,18.09-7.5c4.52,4,16.15,11.46,16.15,11.46L43.54,134.5Z"/><path class="cls-7" d="M19.4,153.48Q19,160.73,18.54,168q30.84,3.69,62.13,6l.42-12.13Q49.94,158.36,19.4,153.48Z"/><path class="cls-7" d="M14.08,244q-.47,7.77-.92,15.6Q45.49,254.29,78,250.5l.44-12.86Q46.23,240.09,14.08,244Z"/><path class="cls-13" d="M78,250.5A24.1,24.1,0,0,0,60.79,268l1-15.5Z"/><path class="cls-14" d="M253.41,374l.71-87.66c0-1.33,6.39-2.4,14.18-2.4s14.06,1.07,14,2.4L276.79,374Zm65.37,0,10.61-75.34c.06-.94-4.67-1.71-10.56-1.71s-10.71.77-10.76,1.71L300,374Zm-79.7,0,.61-94.15c0-.66-3.32-1.2-7.45-1.2s-7.5.54-7.51,1.2l2.1,94.15Z"/><ellipse class="cls-2" cx="318.43" cy="300.52" rx="19.23" ry="4.97"/><path class="cls-2" d="M247.23,286.91c0,2.75,9.24,5,20.63,5s20.62-2.22,20.62-5-9.23-5-20.62-5S247.23,284.17,247.23,286.91Z"/><path class="cls-2" d="M220.76,280c0,1.75,5.13,3.17,11.45,3.17s11.44-1.42,11.44-3.17-5.12-3.16-11.44-3.16S220.76,278.24,220.76,280Z"/><polygon class="cls-15" points="243.84 150.3 233.19 143.53 223 152.16 243.84 150.3"/><path class="cls-4" d="M238.72,153.78s1.11-1.82,5.12-3.48l-10.75-2L223,152.16s3.46.32,4.63,1.62Z"/><path class="cls-4" d="M281.47,140.25a19.44,19.44,0,0,1,9.48,1.2h16s-.31-2.59,8.78-5.16l-17.65-4.13Z"/><path class="cls-16" d="M298.86,139.86c4.41,0,8,.72,8.07,1.59,0,0,0,0,0,.06L329.39,301c.06.94-4.67,1.7-10.56,1.7s-10.71-.76-10.76-1.7L291,141.45C290.91,140.58,294.45,139.86,298.86,139.86Z"/><path class="cls-6" d="M227.54,154.06c0-.84,2.49-1.52,5.61-1.52s5.66.68,5.68,1.52h0l.81,125.9c0,.67-3.32,1.2-7.45,1.2s-7.5-.53-7.51-1.2Z"/><path class="cls-7" d="M261.48,249.7q-20.56-2.17-41.24-3.76l-.19-10.57q20.53.75,41,2.1Z"/><path class="cls-7" d="M258.56,162.31l.39,11.54q-19.92,1.28-40,2l-.18-10Q238.78,164.36,258.56,162.31Z"/><path class="cls-17" d="M242.75,236.39q9.17.48,18.33,1.08l.4,12.23q-7.87-.82-15.77-1.57ZM239.69,164l4.57,10.61c10.55-.45,4.2-.11,14.69-.78l-.39-11.54C247.36,163.46,251,163.13,239.69,164Z"/><path class="cls-18" d="M252.14,42.42h14.77L282.31,287c.05,1.33-6.22,2.41-14,2.41s-14.14-1.08-14.18-2.41Z"/><polygon class="cls-4" points="276.44 54.49 267.35 49.47 252.21 50.4 243.56 57.67 260.13 59.45 276.44 54.49"/><path class="cls-19" d="M261.23,174s7.54,1.15,14.87,14.32l-1.25-19.88Z"/><path class="cls-20" d="M252.49,85.58l-.15-18.46,16-1.34L268.9,74C265.81,75.14,259.23,78.24,252.49,85.58Z"/><path class="cls-4" d="M250.29,47.46l19.12-1.12A2.4,2.4,0,0,0,271.79,44l-.33-8.09-24.3,1.42.24,7.79A2.64,2.64,0,0,0,250.29,47.46Z"/><path class="cls-6" d="M261.23,174h12.43s36-2.71,62.41-6l-.93-14.54H322.5Z"/><path class="cls-6" d="M263.42,237.64h13.71s46.38,3.72,63.78,6.34l1,15.6H328.73Z"/><path class="cls-21" d="M315.71,136.29s-13.82-5.1-18.09-7.5c-4.52,4-16.15,11.46-16.15,11.46l16.89-5.75Z"/><path class="cls-7" d="M322.5,153.48q.44,7.25.86,14.54-30.84,3.69-62.13,6l-.42-12.13Q292,158.36,322.5,153.48Z"/><path class="cls-7" d="M327.82,244q.46,7.77.91,15.6-32.31-5.29-64.87-9.08l-.44-12.86Q295.67,240.09,327.82,244Z"/><path class="cls-22" d="M263.86,250.5A24.1,24.1,0,0,1,281.11,268l-1-15.5Z"/><path class="cls-23" d="M30.62,18.56c.33,1.5.67,3,1,4.51l3.44.55q1,4.3,2.08,8.62a883.18,883.18,0,0,0,267.58,0q1.06-4.32,2.08-8.62l3.44-.55c.35-1.51.69-3,1-4.51A867.15,867.15,0,0,1,30.62,18.56Z"/><path class="cls-24" d="M304.19,50.4a892.2,892.2,0,0,1-266.48,0l0,2.57c1.27.2,2.54.37,3.8.56l.14,11a881.42,881.42,0,0,0,258.56,0l.14-11c1.26-.19,2.53-.36,3.8-.56Z"/><path class="cls-7" d="M41.53,53.56a892,892,0,0,0,258.84,0v0c1.26-.19,2.53-.36,3.8-.56l0-2.57a892.2,892.2,0,0,1-266.48,0l0,2.57c1.27.2,2.54.37,3.8.56Z"/><polygon class="cls-7" points="41.57 56.14 41.56 56.14 41.67 64.58 41.67 64.58 41.57 56.14"/><polygon class="cls-4" points="184.41 67.43 157.49 67.43 155.65 36.45 186.25 36.45 184.41 67.43"/><polygon class="cls-25" points="185.36 73.53 156.48 73.53 157.49 67.43 184.36 67.43 185.36 73.53"/><path class="cls-26" d="M319.41,3.35a849.06,849.06,0,0,1-296.92,0q1.85,7.23,3.86,14.49a860.61,860.61,0,0,0,120,11.79q1,2.07,2,4.14,22.57.58,45.16,0,1-2.07,2-4.14a860.61,860.61,0,0,0,120-11.79Q317.56,10.58,319.41,3.35Z"/><path class="cls-7" d="M19.39,5.35a852.38,852.38,0,0,0,303.12,0c.45-1.79.9-3.57,1.33-5.35A845.7,845.7,0,0,1,18.06,0C18.49,1.78,18.94,3.56,19.39,5.35Z"/></g></g></svg>