<svg xmlns="http://www.w3.org/2000/svg" xmlns:xlink="http://www.w3.org/1999/xlink" viewBox="0 0 565.1 203.45"><defs><style>.cls-1{fill:none;}.cls-2{fill:#e25d6f;}.cls-3{clip-path:url(#clip-path);}.cls-4{fill:#fff;}</style><clipPath id="clip-path" transform="translate(-0.01 43.61)"><path class="cls-1" d="M0,125c-.86-.88,102.46-44.8,154.82-78.58C195.38,20.22,213.66,0,213.66,0L221,3.22l11,.9L236.56,0l5,5.49L248.27,0S383.1,100.32,565.1,118.61l-.1,41.22H0Z"/></clipPath></defs><g id="Layer_2" data-name="Layer 2"><g id="OBJECTS"><path class="cls-2" d="M0,125s113.26-50.2,161.86-83.2C210.07,9,213.66,0,213.66,0L221,3.22l11,.9L236.56,0l5,5.49L248.27,0S383.1,100.32,565.1,118.61l-.1,41.22H0Z" transform="translate(-0.01 43.61)"/><g class="cls-3"><path class="cls-4" d="M73.83,70.9l15-3.56,5.1,2-2.25,8.8,14.47-10.61,10.15-6.84c.26-.17,1.26,8.51,1.39,8.89,1.43.09,4.65-1,5.76-.71,2.37.7,1.84,4.07,3.58,5.11,1.31.78,5.75-.1,7.3-.42,2.47-.52,5.95-3.94,8.54-2.94,2.78,1.08,1,4.27,1.93,6.6,1.6-1.21,4.1-5.28,6.62-4.73,1.67.35,2.39,3.94,2.84,5.36,1.48-1.42,4.41-7.06,6.82-7.06h5.49l7.87-3.33s-1.4,6.72-1.44,7c4.61.55,9.13-2.38,9.91,4.16,4.35-2.93,8.27-7.56,13.48-8.87,9.09-2.28,5.42,3.59,4.94,9,3.15-2.09,2.8-8.21,6.79-9.36.5,1.77.8,3.66,1.46,5.42-.73-2,6.22-5.9,7.63-6.68,2.28-1.27,5.86-1.61,7.86-2.32v1.72l4,.68,6-1v1.72l4.83,2.23,1.39,3.71,12.35-3.71,7.54,1.54,2.75-1.54c4.59,3.21,9.35,7.53,15.28,7.58-.42,0,.28-3,1.12-3.34s2.49,1.07,3.32,1.29c3.92,1,4.89-1.7,6.41-4.68,5.65,3.45,15,3.91,19.18,9.26,1.25-3.54-.35-8.22,3.64-4,1.93,2,4.73,7.15,8.08,6-2.34-4.31-4.81-9.59,2.25-8.77a98.12,98.12,0,0,1,17.9,4.33c-2.92-5.45-5.74-8.66-4.82-15.27,1.36-.27,3.83-.12,5.12-.76l4.12-2.07c1.71,1,5.48,1.38,5.48,1.38l4.8.09-3.08-4.37h5.82l6.86,3.17,2.4,1.75,2.4-4.77,2.4-12s-14.4-20.57-17.83-22.28-75.08-60-79.88-61.71-98-6.17-104.91-5.48-67.19,28.8-70.62,31.2S63.72,57.25,63.72,57.25l4.11,11L74,65.14Z" transform="translate(-0.01 43.61)"/></g></g></g></svg>