<svg xmlns="http://www.w3.org/2000/svg" viewBox="0 0 780.87 1117.53"><defs><style>.cls-1{fill:#866668;}.cls-1,.cls-2{fill-rule:evenodd;}.cls-2{fill:#4a374b;}</style></defs><g id="Layer_2" data-name="Layer 2"><g id="Layer_1-2" data-name="Layer 1"><polygon class="cls-1" points="497.84 365.59 299.56 365.59 299.56 1101.52 497.84 1101.52 497.84 365.59 497.84 365.59"/><polygon class="cls-2" points="365.97 445.82 307.45 445.82 307.45 468.91 365.97 468.91 365.97 445.82 365.97 445.82"/><polygon class="cls-2" points="366.09 427.49 307.57 427.49 307.57 440.34 366.09 440.34 366.09 427.49 366.09 427.49"/><polygon class="cls-2" points="365.47 472.28 306.95 472.28 306.95 485.13 365.47 485.13 365.47 472.28 365.47 472.28"/><polygon class="cls-2" points="429.89 445.82 371.37 445.82 371.37 468.91 429.89 468.91 429.89 445.82 429.89 445.82"/><polygon class="cls-2" points="430.01 427.49 371.49 427.49 371.49 440.34 430.01 440.34 430.01 427.49 430.01 427.49"/><polygon class="cls-2" points="429.39 472.28 370.87 472.28 370.87 485.13 429.39 485.13 429.39 472.28 429.39 472.28"/><polygon class="cls-2" points="493.81 445.82 435.29 445.82 435.29 468.91 493.81 468.91 493.81 445.82 493.81 445.82"/><polygon class="cls-2" points="493.93 427.49 435.41 427.49 435.41 440.34 493.93 440.34 493.93 427.49 493.93 427.49"/><polygon class="cls-2" points="493.31 472.28 434.79 472.28 434.79 485.13 493.31 485.13 493.31 472.28 493.31 472.28"/><polygon class="cls-1" points="364.34 447.36 309.09 447.36 309.09 467.37 364.34 467.37 364.34 447.36 364.34 447.36"/><polygon class="cls-1" points="364.46 428.35 309.21 428.35 309.21 439.48 364.46 439.48 364.46 428.35 364.46 428.35"/><polygon class="cls-1" points="363.83 473.14 308.59 473.14 308.59 484.28 363.83 484.28 363.83 473.14 363.83 473.14"/><polygon class="cls-1" points="428.26 447.36 373.01 447.36 373.01 467.37 428.26 467.37 428.26 447.36 428.26 447.36"/><polygon class="cls-1" points="428.38 428.35 373.13 428.35 373.13 439.48 428.38 439.48 428.38 428.35 428.38 428.35"/><polygon class="cls-1" points="427.75 473.14 372.51 473.14 372.51 484.28 427.75 484.28 427.75 473.14 427.75 473.14"/><polygon class="cls-1" points="492.18 447.36 436.93 447.36 436.93 467.37 492.18 467.37 492.18 447.36 492.18 447.36"/><polygon class="cls-1" points="492.3 428.35 437.05 428.35 437.05 439.48 492.3 439.48 492.3 428.35 492.3 428.35"/><polygon class="cls-1" points="491.68 473.14 436.43 473.14 436.43 484.28 491.68 484.28 491.68 473.14 491.68 473.14"/><polygon class="cls-2" points="366.63 622.43 308.11 622.43 308.11 645.52 366.63 645.52 366.63 622.43 366.63 622.43"/><polygon class="cls-2" points="366.75 604.1 308.23 604.1 308.23 616.95 366.75 616.95 366.75 604.1 366.75 604.1"/><polygon class="cls-2" points="366.13 648.89 307.6 648.89 307.6 661.74 366.13 661.74 366.13 648.89 366.13 648.89"/><polygon class="cls-2" points="430.55 622.43 372.03 622.43 372.03 645.52 430.55 645.52 430.55 622.43 430.55 622.43"/><polygon class="cls-2" points="430.67 604.1 372.14 604.1 372.14 616.95 430.67 616.95 430.67 604.1 430.67 604.1"/><polygon class="cls-2" points="430.05 648.89 371.52 648.89 371.52 661.74 430.05 661.74 430.05 648.89 430.05 648.89"/><polygon class="cls-2" points="494.47 622.43 435.95 622.43 435.95 645.52 494.47 645.52 494.47 622.43 494.47 622.43"/><polygon class="cls-2" points="494.59 604.1 436.06 604.1 436.06 616.95 494.59 616.95 494.59 604.1 494.59 604.1"/><polygon class="cls-2" points="493.97 648.89 435.44 648.89 435.44 661.74 493.97 661.74 493.97 648.89 493.97 648.89"/><polygon class="cls-1" points="364.99 623.97 309.74 623.97 309.74 643.98 364.99 643.98 364.99 623.97 364.99 623.97"/><polygon class="cls-1" points="365.11 604.96 309.86 604.96 309.86 616.09 365.11 616.09 365.11 604.96 365.11 604.96"/><polygon class="cls-1" points="364.49 649.75 309.24 649.75 309.24 660.89 364.49 660.89 364.49 649.75 364.49 649.75"/><polygon class="cls-1" points="428.91 623.97 373.66 623.97 373.66 643.98 428.91 643.98 428.91 623.97 428.91 623.97"/><polygon class="cls-1" points="429.03 604.96 373.78 604.96 373.78 616.09 429.03 616.09 429.03 604.96 429.03 604.96"/><polygon class="cls-1" points="428.41 649.75 373.16 649.75 373.16 660.89 428.41 660.89 428.41 649.75 428.41 649.75"/><polygon class="cls-1" points="492.83 623.97 437.58 623.97 437.58 643.98 492.83 643.98 492.83 623.97 492.83 623.97"/><polygon class="cls-1" points="492.95 604.96 437.7 604.96 437.7 616.09 492.95 616.09 492.95 604.96 492.95 604.96"/><polygon class="cls-1" points="492.33 649.75 437.08 649.75 437.08 660.89 492.33 660.89 492.33 649.75 492.33 649.75"/><polygon class="cls-2" points="366.63 786.9 308.11 786.9 308.11 809.98 366.63 809.98 366.63 786.9 366.63 786.9"/><polygon class="cls-2" points="366.75 768.57 308.23 768.57 308.23 781.41 366.75 781.41 366.75 768.57 366.75 768.57"/><polygon class="cls-2" points="366.13 813.36 307.6 813.36 307.6 826.21 366.13 826.21 366.13 813.36 366.13 813.36"/><polygon class="cls-2" points="430.55 786.9 372.03 786.9 372.03 809.98 430.55 809.98 430.55 786.9 430.55 786.9"/><polygon class="cls-2" points="430.67 768.57 372.14 768.57 372.14 781.41 430.67 781.41 430.67 768.57 430.67 768.57"/><polygon class="cls-2" points="430.05 813.36 371.52 813.36 371.52 826.21 430.05 826.21 430.05 813.36 430.05 813.36"/><polygon class="cls-2" points="494.47 786.9 435.95 786.9 435.95 809.98 494.47 809.98 494.47 786.9 494.47 786.9"/><polygon class="cls-2" points="494.59 768.57 436.06 768.57 436.06 781.41 494.59 781.41 494.59 768.57 494.59 768.57"/><polygon class="cls-2" points="493.97 813.36 435.44 813.36 435.44 826.21 493.97 826.21 493.97 813.36 493.97 813.36"/><polygon class="cls-1" points="364.99 788.44 309.74 788.44 309.74 808.44 364.99 808.44 364.99 788.44 364.99 788.44"/><polygon class="cls-1" points="365.11 769.42 309.86 769.42 309.86 780.56 365.11 780.56 365.11 769.42 365.11 769.42"/><polygon class="cls-1" points="364.49 814.22 309.24 814.22 309.24 825.35 364.49 825.35 364.49 814.22 364.49 814.22"/><polygon class="cls-1" points="428.91 788.44 373.66 788.44 373.66 808.44 428.91 808.44 428.91 788.44 428.91 788.44"/><polygon class="cls-1" points="429.03 769.42 373.78 769.42 373.78 780.56 429.03 780.56 429.03 769.42 429.03 769.42"/><polygon class="cls-1" points="428.41 814.22 373.16 814.22 373.16 825.35 428.41 825.35 428.41 814.22 428.41 814.22"/><polygon class="cls-1" points="492.83 788.44 437.58 788.44 437.58 808.44 492.83 808.44 492.83 788.44 492.83 788.44"/><polygon class="cls-1" points="492.95 769.42 437.7 769.42 437.7 780.56 492.95 780.56 492.95 769.42 492.95 769.42"/><polygon class="cls-1" points="492.33 814.22 437.08 814.22 437.08 825.35 492.33 825.35 492.33 814.22 492.33 814.22"/><polygon class="cls-2" points="365.8 951.52 307.27 951.52 307.27 974.6 365.8 974.6 365.8 951.52 365.8 951.52"/><polygon class="cls-2" points="365.91 933.19 307.39 933.19 307.39 946.04 365.91 946.04 365.91 933.19 365.91 933.19"/><polygon class="cls-2" points="365.29 977.98 306.77 977.98 306.77 990.83 365.29 990.83 365.29 977.98 365.29 977.98"/><polygon class="cls-2" points="429.72 951.52 371.19 951.52 371.19 974.6 429.72 974.6 429.72 951.52 429.72 951.52"/><polygon class="cls-2" points="429.83 933.19 371.31 933.19 371.31 946.04 429.83 946.04 429.83 933.19 429.83 933.19"/><polygon class="cls-2" points="429.21 977.98 370.69 977.98 370.69 990.83 429.21 990.83 429.21 977.98 429.21 977.98"/><polygon class="cls-2" points="493.64 951.52 435.11 951.52 435.11 974.6 493.64 974.6 493.64 951.52 493.64 951.52"/><polygon class="cls-2" points="493.75 933.19 435.23 933.19 435.23 946.04 493.75 946.04 493.75 933.19 493.75 933.19"/><polygon class="cls-2" points="493.13 977.98 434.61 977.98 434.61 990.83 493.13 990.83 493.13 977.98 493.13 977.98"/><polygon class="cls-1" points="364.16 953.06 308.91 953.06 308.91 973.06 364.16 973.06 364.16 953.06 364.16 953.06"/><polygon class="cls-1" points="364.28 934.04 309.03 934.04 309.03 945.18 364.28 945.18 364.28 934.04 364.28 934.04"/><polygon class="cls-1" points="363.66 978.84 308.41 978.84 308.41 989.97 363.66 989.97 363.66 978.84 363.66 978.84"/><polygon class="cls-1" points="428.08 953.06 372.83 953.06 372.83 973.06 428.08 973.06 428.08 953.06 428.08 953.06"/><polygon class="cls-1" points="428.2 934.04 372.95 934.04 372.95 945.18 428.2 945.18 428.2 934.04 428.2 934.04"/><polygon class="cls-1" points="427.58 978.84 372.33 978.84 372.33 989.97 427.58 989.97 427.58 978.84 427.58 978.84"/><polygon class="cls-1" points="492 953.06 436.75 953.06 436.75 973.06 492 973.06 492 953.06 492 953.06"/><polygon class="cls-1" points="492.12 934.04 436.87 934.04 436.87 945.18 492.12 945.18 492.12 934.04 492.12 934.04"/><polygon class="cls-1" points="491.5 978.84 436.25 978.84 436.25 989.97 491.5 989.97 491.5 978.84 491.5 978.84"/><polygon class="cls-2" points="246.01 393.38 239.02 385.64 208.97 412.79 215.96 420.53 246.01 393.38 246.01 393.38"/><polygon class="cls-2" points="555.53 394.18 562.52 386.44 592.57 413.59 585.58 421.33 555.53 394.18 555.53 394.18"/><polygon class="cls-2" points="263.61 394.69 255.97 387.59 228.41 417.27 236.06 424.37 263.61 394.69 263.61 394.69"/><polygon class="cls-2" points="537.93 395.48 545.57 388.38 573.13 418.07 565.48 425.16 537.93 395.48 537.93 395.48"/><polygon class="cls-2" points="281.26 394.45 273.02 388.05 248.18 420.03 256.41 426.43 281.26 394.45 281.26 394.45"/><polygon class="cls-2" points="520.28 395.24 528.52 388.84 553.37 420.82 545.13 427.22 520.28 395.24 520.28 395.24"/><polygon class="cls-2" points="298.82 392.66 290.05 387 268.1 421.04 276.87 426.69 298.82 392.66 298.82 392.66"/><polygon class="cls-2" points="502.72 393.45 511.49 387.8 533.44 421.84 524.67 427.49 502.72 393.45 502.72 393.45"/><polygon class="cls-2" points="316.15 389.34 306.92 384.47 288.04 420.31 297.27 425.17 316.15 389.34 316.15 389.34"/><polygon class="cls-2" points="485.39 390.13 494.62 385.27 513.5 421.1 504.27 425.96 485.39 390.13 485.39 390.13"/><polygon class="cls-2" points="331.8 389.35 322.18 385.31 306.51 422.66 316.13 426.69 331.8 389.35 331.8 389.35"/><polygon class="cls-2" points="469.74 390.14 479.36 386.11 495.02 423.45 485.41 427.49 469.74 390.14 469.74 390.14"/><polygon class="cls-2" points="346.88 386.59 336.94 383.41 324.61 421.99 334.55 425.17 346.88 386.59 346.88 386.59"/><polygon class="cls-2" points="454.66 387.38 464.6 384.21 476.93 422.79 466.99 425.96 454.66 387.38 454.66 387.38"/><polygon class="cls-2" points="361.95 384.48 351.77 382.19 342.87 421.7 353.04 423.99 361.95 384.48 361.95 384.48"/><polygon class="cls-2" points="439.59 385.27 449.77 382.98 458.67 422.49 448.5 424.78 439.59 385.27 439.59 385.27"/><polygon class="cls-2" points="379.16 384.81 368.81 383.53 363.81 423.72 374.16 425 379.16 384.81 379.16 384.81"/><polygon class="cls-2" points="422.38 385.61 432.73 384.32 437.73 424.51 427.38 425.8 422.38 385.61 422.38 385.61"/><polygon class="cls-2" points="396.32 383.46 385.89 383.19 384.86 423.68 395.28 423.95 396.32 383.46 396.32 383.46"/><polygon class="cls-2" points="405.22 384.25 415.64 383.99 416.68 424.48 406.26 424.74 405.22 384.25 405.22 384.25"/><path class="cls-2" d="M499.44,379.47H296.75V402.2c34.09,16.69,68.7-7.72,101.47-7.75,34.88,0,71.52,23.14,101.22,7.75V379.47Z"/><path class="cls-2" d="M419.58,287.2H395.82v85.41s187.22,16,195.25,0c-21.49,0-39.06-1.91-56-9C487.7,344,450,314.75,419.58,287.2Z"/><path class="cls-2" d="M372.06,287.2h23.76v85.41s-187.23,16-195.25,0c21.49,0,39.06-1.91,56-9,47.35-19.68,85-48.9,115.47-76.45Z"/><path class="cls-2" d="M422.27,287.2h-52.9c-42.75,42.71-100.24,76.49-171.46,102,64.73,9.63,131.15,10.22,200.61-5.41,72.45,14.32,137.3,15.73,195.21,5.41q-28.1-10.56-53.58-22.49c-47.35-22.25-87.41-48.34-117.88-79.48Z"/><path class="cls-1" d="M593.71,387.59c-66.21,6.7-131.63,5.32-195.21-14.56l-.09,0-.28.07c-65.38,16.13-132.32,19.39-200.24,14.46v7.75c68,6.1,135.26,5.62,200.61-13.15,63.48,19.32,128.74,21.94,195.21,13.15v-7.75Z"/><path class="cls-1" d="M422.26,285.63H369.35c-42.75,42.7-100.23,76.48-171.46,102,0,0,62.32,10.73,95.76,9.1S398.5,377.83,398.5,377.83l99.22,17.51c32.07-.51,64-3.75,96-7.75-71-26.7-130.08-59.67-171.45-102ZM421.18,287c40.22,40.86,96.94,73,165,99.28.66,1.82-90.43,9.73-91.12,7.81L398.5,376.49s-72.73,13.69-104.85,15.32-87.89-5.56-87.89-5.56c68-25.16,123.19-58.07,164.65-99.28Z"/><path class="cls-1" d="M399.38,285.63h-5c4.74,34.39,3.81,60.18,0,93.84h5s3.27-31.28,3.27-48.28c0-14.07-3.27-45.56-3.27-45.56Z"/><polygon class="cls-2" points="246.01 575.77 239.02 570.8 208.97 588.23 215.96 593.19 246.01 575.77 246.01 575.77"/><polygon class="cls-2" points="555.53 576.28 562.52 571.31 592.57 588.74 585.58 593.7 555.53 576.28 555.53 576.28"/><polygon class="cls-2" points="263.61 576.61 255.97 572.05 228.41 591.1 236.06 595.65 263.61 576.61 263.61 576.61"/><polygon class="cls-2" points="537.93 577.12 545.57 572.56 573.13 591.61 565.48 596.16 537.93 577.12 537.93 577.12"/><polygon class="cls-2" points="281.26 576.45 273.02 572.34 248.18 592.87 256.41 596.98 281.26 576.45 281.26 576.45"/><polygon class="cls-2" points="520.28 576.96 528.52 572.85 553.37 593.38 545.13 597.49 520.28 576.96 520.28 576.96"/><polygon class="cls-2" points="298.82 575.3 290.05 571.68 268.1 593.52 276.87 597.15 298.82 575.3 298.82 575.3"/><polygon class="cls-2" points="502.72 575.81 511.49 572.19 533.44 594.03 524.67 597.66 502.72 575.81 502.72 575.81"/><polygon class="cls-2" points="316.15 573.17 306.92 570.05 288.04 593.05 297.27 596.17 316.15 573.17 316.15 573.17"/><polygon class="cls-2" points="485.39 573.68 494.62 570.56 513.5 593.55 504.27 596.68 485.39 573.68 485.39 573.68"/><polygon class="cls-2" points="331.8 573.18 322.18 570.59 306.51 594.56 316.13 597.15 331.8 573.18 331.8 573.18"/><polygon class="cls-2" points="469.74 573.69 479.36 571.1 495.02 595.07 485.41 597.66 469.74 573.69 469.74 573.69"/><polygon class="cls-2" points="346.88 571.41 336.94 569.37 324.61 594.13 334.55 596.17 346.88 571.41 346.88 571.41"/><polygon class="cls-2" points="454.66 571.92 464.6 569.88 476.93 594.64 466.99 596.68 454.66 571.92 454.66 571.92"/><polygon class="cls-2" points="361.95 570.06 351.77 568.59 342.87 593.94 353.04 595.41 361.95 570.06 361.95 570.06"/><polygon class="cls-2" points="439.59 570.57 449.77 569.09 458.67 594.45 448.5 595.92 439.59 570.57 439.59 570.57"/><polygon class="cls-2" points="379.16 570.27 368.81 569.45 363.81 595.24 374.16 596.06 379.16 570.27 379.16 570.27"/><polygon class="cls-2" points="422.38 570.78 432.73 569.95 437.73 595.75 427.38 596.57 422.38 570.78 422.38 570.78"/><polygon class="cls-2" points="396.32 569.4 385.89 569.23 384.86 595.21 395.28 595.38 396.32 569.4 396.32 569.4"/><polygon class="cls-2" points="405.22 569.91 415.64 569.74 416.68 595.72 406.26 595.89 405.22 569.91 405.22 569.91"/><path class="cls-2" d="M499.44,566.84H296.75v14.58c34.09,10.72,68.7-4.95,101.47-5,34.88,0,71.52,14.85,101.22,5V566.84Z"/><path class="cls-2" d="M498.62,521.79H298.89c-16.84,23.79-55.44,38.48-101,50.26,0,0,131.15,6.56,200.61-3.46,74.62,13.75,197.63,8.56,195.21,3.46-39.82-7-75.54-19-95.09-50.26Z"/><path class="cls-2" d="M495,516.84H302.36c-16.25,20-53.47,32.38-97.4,42.3,0,0,125.56,12.93,192.54,4.5,72,11.57,183.54,2.54,189.14-4.5-38.4-5.92-72.84-16-91.69-42.3Z"/><path class="cls-1" d="M593.71,572.05c-66.21,4.3-131.63,3.42-195.21-9.34l-.09,0-.28,0c-65.38,10.36-132.32,12.45-200.24,9.28v5c68,3.91,135.26,3.61,200.61-8.44C462,581,527.24,582.67,593.71,577v-5Z"/><path class="cls-1" d="M401.85,502.72h-4.29c4,24.14,3.25,42.24,0,65.87h4.29s2.78-22,2.78-33.89c0-9.88-2.78-32-2.78-32Z"/><polygon class="cls-2" points="246.01 740.24 239.02 735.27 208.97 752.69 215.96 757.66 246.01 740.24 246.01 740.24"/><polygon class="cls-2" points="555.53 740.74 562.52 735.78 592.57 753.2 585.58 758.17 555.53 740.74 555.53 740.74"/><polygon class="cls-2" points="263.61 741.07 255.97 736.52 228.41 755.57 236.06 760.12 263.61 741.07 263.61 741.07"/><polygon class="cls-2" points="537.93 741.58 545.57 737.03 573.13 756.08 565.48 760.63 537.93 741.58 537.93 741.58"/><polygon class="cls-2" points="281.26 740.92 273.02 736.81 248.18 757.33 256.41 761.44 281.26 740.92 281.26 740.92"/><polygon class="cls-2" points="520.28 741.43 528.52 737.32 553.37 757.84 545.13 761.95 520.28 741.43 520.28 741.43"/><polygon class="cls-2" points="298.82 739.77 290.05 736.14 268.1 757.99 276.87 761.61 298.82 739.77 298.82 739.77"/><polygon class="cls-2" points="502.72 740.28 511.49 736.65 533.44 758.49 524.67 762.12 502.72 740.28 502.72 740.28"/><polygon class="cls-2" points="316.15 737.64 306.92 734.52 288.04 757.51 297.27 760.63 316.15 737.64 316.15 737.64"/><polygon class="cls-2" points="485.39 738.15 494.62 735.03 513.5 758.02 504.27 761.14 485.39 738.15 485.39 738.15"/><polygon class="cls-2" points="331.8 737.65 322.18 735.06 306.51 759.02 316.13 761.61 331.8 737.65 331.8 737.65"/><polygon class="cls-2" points="469.74 738.15 479.36 735.57 495.02 759.53 485.41 762.12 469.74 738.15 469.74 738.15"/><polygon class="cls-2" points="346.88 735.88 336.94 733.84 324.61 758.59 334.55 760.63 346.88 735.88 346.88 735.88"/><polygon class="cls-2" points="454.66 736.39 464.6 734.35 476.93 759.1 466.99 761.14 454.66 736.39 454.66 736.39"/><polygon class="cls-2" points="361.95 734.52 351.77 733.05 342.87 758.4 353.04 759.88 361.95 734.52 361.95 734.52"/><polygon class="cls-2" points="439.59 735.03 449.77 733.56 458.67 758.91 448.5 760.39 439.59 735.03 439.59 735.03"/><polygon class="cls-2" points="379.16 734.74 368.81 733.91 363.81 759.7 374.16 760.53 379.16 734.74 379.16 734.74"/><polygon class="cls-2" points="422.38 735.25 432.73 734.42 437.73 760.21 427.38 761.04 422.38 735.25 422.38 735.25"/><polygon class="cls-2" points="396.32 733.87 385.89 733.7 384.86 759.68 395.28 759.85 396.32 733.87 396.32 733.87"/><polygon class="cls-2" points="405.22 734.38 415.64 734.21 416.68 760.19 406.26 760.36 405.22 734.38 405.22 734.38"/><path class="cls-2" d="M499.44,731.3H296.75v14.59c34.09,10.71,68.7-4.95,101.47-5,34.88,0,71.52,14.85,101.22,5V731.3Z"/><path class="cls-2" d="M498.62,686.25H298.89c-16.84,23.79-55.44,38.48-101,50.27,0,0,131.15,6.56,200.61-3.47,74.62,13.75,197.63,8.56,195.21,3.47-39.82-7-75.54-19-95.09-50.27Z"/><path class="cls-2" d="M495,681.3H302.36c-16.25,20-53.47,32.38-97.4,42.3,0,0,125.56,12.94,192.54,4.5,72,11.58,183.54,2.55,189.14-4.5-38.4-5.91-72.84-16-91.69-42.3Z"/><path class="cls-1" d="M593.71,736.52c-66.21,4.3-131.63,3.41-195.21-9.34h-.09l-.28,0c-65.38,10.35-132.32,12.44-200.24,9.28v5c68,3.92,135.26,3.61,200.61-8.44,63.48,12.4,128.74,14.08,195.21,8.44v-5Z"/><path class="cls-1" d="M401.85,667.19h-4.29c4,24.13,3.25,42.24,0,65.86h4.29s2.78-22,2.78-33.88c0-9.88-2.78-32-2.78-32Z"/><polygon class="cls-2" points="245.18 904.86 238.19 899.89 208.14 917.31 215.13 922.28 245.18 904.86 245.18 904.86"/><polygon class="cls-2" points="554.69 905.37 561.69 900.4 591.74 917.82 584.75 922.79 554.69 905.37 554.69 905.37"/><polygon class="cls-2" points="262.78 905.69 255.14 901.14 227.58 920.19 235.23 924.74 262.78 905.69 262.78 905.69"/><polygon class="cls-2" points="537.09 906.2 544.74 901.65 572.29 920.7 564.65 925.25 537.09 906.2 537.09 906.2"/><polygon class="cls-2" points="280.43 905.54 272.19 901.43 247.34 921.96 255.58 926.06 280.43 905.54 280.43 905.54"/><polygon class="cls-2" points="519.45 906.05 527.68 901.94 552.53 922.47 544.29 926.57 519.45 906.05 519.45 906.05"/><polygon class="cls-2" points="297.99 904.39 289.22 900.76 267.27 922.61 276.04 926.23 297.99 904.39 297.99 904.39"/><polygon class="cls-2" points="501.89 904.9 510.66 901.27 532.61 923.12 523.84 926.74 501.89 904.9 501.89 904.9"/><polygon class="cls-2" points="315.32 902.26 306.09 899.14 287.21 922.13 296.44 925.25 315.32 902.26 315.32 902.26"/><polygon class="cls-2" points="484.56 902.77 493.79 899.65 512.67 922.64 503.44 925.76 484.56 902.77 484.56 902.77"/><polygon class="cls-2" points="330.97 902.27 321.35 899.68 305.68 923.64 315.3 926.23 330.97 902.27 330.97 902.27"/><polygon class="cls-2" points="468.91 902.78 478.53 900.19 494.19 924.15 484.57 926.74 468.91 902.78 468.91 902.78"/><polygon class="cls-2" points="346.05 900.5 336.11 898.46 323.78 923.22 333.71 925.25 346.05 900.5 346.05 900.5"/><polygon class="cls-2" points="453.83 901.01 463.76 898.97 476.1 923.72 466.16 925.76 453.83 901.01 453.83 901.01"/><polygon class="cls-2" points="361.11 899.14 350.94 897.67 342.03 923.03 352.21 924.5 361.11 899.14 361.11 899.14"/><polygon class="cls-2" points="438.76 899.65 448.94 898.18 457.84 923.53 447.67 925.01 438.76 899.65 438.76 899.65"/><polygon class="cls-2" points="378.33 899.36 367.98 898.53 362.98 924.32 373.33 925.15 378.33 899.36 378.33 899.36"/><polygon class="cls-2" points="421.55 899.87 431.9 899.04 436.9 924.83 426.54 925.66 421.55 899.87 421.55 899.87"/><polygon class="cls-2" points="395.49 898.49 385.06 898.32 384.02 924.3 394.45 924.47 395.49 898.49 395.49 898.49"/><polygon class="cls-2" points="404.38 899 414.81 898.83 415.85 924.81 405.42 924.98 404.38 899 404.38 899"/><path class="cls-2" d="M498.61,895.92H295.92v14.59c34.09,10.72,68.7-5,101.47-5,34.88,0,71.52,14.85,101.22,5V895.92Z"/><path class="cls-2" d="M497.79,850.87H298.06c-16.84,23.79-55.45,38.48-101,50.27,0,0,131.15,6.56,200.61-3.47,74.62,13.75,197.63,8.56,195.21,3.47-39.82-7-75.54-19-95.09-50.27Z"/><path class="cls-2" d="M494.12,845.93H301.52c-16.24,20-53.47,32.38-97.39,42.29,0,0,125.56,12.94,192.53,4.5,72,11.58,183.55,2.55,189.15-4.5-38.4-5.91-72.84-16-91.69-42.29Z"/><path class="cls-1" d="M592.88,901.14c-66.21,4.3-131.63,3.41-195.21-9.34h-.1l-.27.05c-65.38,10.35-132.32,12.45-200.24,9.28v5c68,3.92,135.25,3.61,200.61-8.44,63.48,12.4,128.74,14.09,195.21,8.44v-5Z"/><path class="cls-1" d="M401,831.81h-4.28c4,24.14,3.24,42.24,0,65.86H401s2.79-21.95,2.79-33.88c0-9.88-2.79-32-2.79-32Z"/><polygon class="cls-1" points="422.23 278.32 369.38 278.32 369.38 285.63 422.23 285.63 422.23 278.32 422.23 278.32"/><polygon class="cls-1" points="416.6 272.46 375 272.46 375 279.77 416.6 279.77 416.6 272.46 416.6 272.46"/><path class="cls-1" d="M412.17,264.8a15.53,15.53,0,0,0-15.53-15.54H395a15.54,15.54,0,0,0-15.54,15.54v9.12h32.74V264.8Z"/><polygon class="cls-1" points="397.56 4.37 394.04 4.37 394.04 261.59 397.56 261.59 397.56 4.37 397.56 4.37"/><path class="cls-1" d="M384.89,219.85c0,9.58,4.89,17.35,10.91,17.35s10.91-7.77,10.91-17.35H384.89Z"/><path class="cls-1" d="M384.89,22.84c0,9.58,4.89,17.35,10.91,17.35s10.91-7.77,10.91-17.35H384.89Z"/><path class="cls-1" d="M395.8,0a5.66,5.66,0,1,1-5.66,5.66A5.66,5.66,0,0,1,395.8,0Z"/><polygon class="cls-1" points="404.4 66.19 395.8 61.53 387.2 66.19 387.2 105.23 404.4 105.23 404.4 66.19 404.4 66.19"/><path class="cls-1" d="M384.89,196.11c0-3.69,4.89-6.69,10.91-6.69s10.91,3,10.91,6.69H384.89Z"/><path class="cls-1" d="M384.89,184c0-3.7,4.89-6.69,10.91-6.69s10.91,3,10.91,6.69H384.89Z"/><path class="cls-1" d="M384.89,171.36c0-3.69,4.89-6.69,10.91-6.69s10.91,3,10.91,6.69H384.89Z"/><path class="cls-1" d="M384.89,156.94c0-3.7,4.89-6.69,10.91-6.69s10.91,3,10.91,6.69H384.89Z"/><path class="cls-1" d="M384.89,141.23c0-3.69,4.89-6.68,10.91-6.68s10.91,3,10.91,6.68H384.89Z"/><path class="cls-1" d="M384.89,125.06c0-3.7,4.89-6.69,10.91-6.69s10.91,3,10.91,6.69H384.89Z"/><polygon class="cls-2" points="531.34 478.3 260.26 478.3 260.26 516.66 531.34 516.66 531.34 478.3 531.34 478.3"/><polygon class="cls-1" points="531.34 510.97 260.26 510.97 260.26 516.66 531.34 516.66 531.34 510.97 531.34 510.97"/><path class="cls-2" d="M528.9,478.65v5.29H262.71v-5.29Z"/><polygon class="cls-2" points="271.67 469.94 271.67 492.66 268.79 492.66 268.79 469.94 271.67 469.94 271.67 469.94"/><polygon class="cls-2" points="286.34 469.66 286.34 492.39 283.46 492.39 283.46 469.66 286.34 469.66 286.34 469.66"/><polygon class="cls-2" points="300.76 469.5 300.76 492.22 297.88 492.22 297.88 469.5 300.76 469.5 300.76 469.5"/><polygon class="cls-2" points="315.85 469.5 315.85 492.22 312.97 492.22 312.97 469.5 315.85 469.5 315.85 469.5"/><polygon class="cls-2" points="330.27 469.5 330.27 492.22 327.39 492.22 327.39 469.5 330.27 469.5 330.27 469.5"/><polygon class="cls-2" points="344.99 469.5 344.99 492.22 342.1 492.22 342.1 469.5 344.99 469.5 344.99 469.5"/><polygon class="cls-2" points="360.15 469.5 360.15 492.22 357.27 492.22 357.27 469.5 360.15 469.5 360.15 469.5"/><polygon class="cls-2" points="374.4 469.5 374.4 492.22 371.52 492.22 371.52 469.5 374.4 469.5 374.4 469.5"/><polygon class="cls-2" points="389.13 469.5 389.13 492.22 386.25 492.22 386.25 469.5 389.13 469.5 389.13 469.5"/><polygon class="cls-2" points="403.78 469.5 403.78 492.22 400.9 492.22 400.9 469.5 403.78 469.5 403.78 469.5"/><polygon class="cls-2" points="418.47 469.5 418.47 492.22 415.59 492.22 415.59 469.5 418.47 469.5 418.47 469.5"/><polygon class="cls-2" points="433 469.5 433 492.22 430.12 492.22 430.12 469.5 433 469.5 433 469.5"/><polygon class="cls-2" points="447.64 469.5 447.64 492.22 444.76 492.22 444.76 469.5 447.64 469.5 447.64 469.5"/><polygon class="cls-2" points="462.49 469.5 462.49 492.22 459.61 492.22 459.61 469.5 462.49 469.5 462.49 469.5"/><polygon class="cls-2" points="477.14 469.5 477.14 492.22 474.26 492.22 474.26 469.5 477.14 469.5 477.14 469.5"/><polygon class="cls-2" points="491.78 469.5 491.78 492.22 488.9 492.22 488.9 469.5 491.78 469.5 491.78 469.5"/><polygon class="cls-2" points="506.43 469.5 506.43 492.22 503.55 492.22 503.55 469.5 506.43 469.5 506.43 469.5"/><polygon class="cls-2" points="521.21 469.5 521.21 492.22 518.33 492.22 518.33 469.5 521.21 469.5 521.21 469.5"/><polygon class="cls-1" points="283.04 498.15 271.65 498.15 271.65 508.9 283.04 508.9 283.04 498.15 283.04 498.15"/><polygon class="cls-1" points="317.01 498.15 305.63 498.15 305.63 508.9 317.01 508.9 317.01 498.15 317.01 498.15"/><polygon class="cls-1" points="350.99 498.15 339.61 498.15 339.61 508.9 350.99 508.9 350.99 498.15 350.99 498.15"/><polygon class="cls-1" points="384.97 498.15 373.58 498.15 373.58 508.9 384.97 508.9 384.97 498.15 384.97 498.15"/><polygon class="cls-1" points="418.95 498.15 407.56 498.15 407.56 508.9 418.95 508.9 418.95 498.15 418.95 498.15"/><polygon class="cls-1" points="452.93 498.15 441.54 498.15 441.54 508.9 452.93 508.9 452.93 498.15 452.93 498.15"/><polygon class="cls-1" points="486.9 498.15 475.52 498.15 475.52 508.9 486.9 508.9 486.9 498.15 486.9 498.15"/><polygon class="cls-1" points="520.88 498.15 509.5 498.15 509.5 508.9 520.88 508.9 520.88 498.15 520.88 498.15"/><polygon class="cls-2" points="531.36 641.43 260.28 641.43 260.28 679.78 531.36 679.78 531.36 641.43 531.36 641.43"/><polygon class="cls-1" points="531.36 674.1 260.28 674.1 260.28 679.78 531.36 679.78 531.36 674.1 531.36 674.1"/><polygon class="cls-2" points="528.91 641.78 528.91 647.07 262.72 647.07 262.72 641.78 528.91 641.78 528.91 641.78"/><polygon class="cls-2" points="271.69 633.06 271.69 655.78 268.81 655.78 268.81 633.06 271.69 633.06 271.69 633.06"/><polygon class="cls-2" points="286.36 632.79 286.36 655.51 283.48 655.51 283.48 632.79 286.36 632.79 286.36 632.79"/><polygon class="cls-2" points="300.77 632.62 300.77 655.35 297.89 655.35 297.89 632.62 300.77 632.62 300.77 632.62"/><polygon class="cls-2" points="315.87 632.62 315.87 655.35 312.99 655.35 312.99 632.62 315.87 632.62 315.87 632.62"/><polygon class="cls-2" points="330.29 632.62 330.29 655.35 327.41 655.35 327.41 632.62 330.29 632.62 330.29 632.62"/><polygon class="cls-2" points="345 632.62 345 655.35 342.12 655.35 342.12 632.62 345 632.62 345 632.62"/><polygon class="cls-2" points="360.16 632.62 360.16 655.35 357.28 655.35 357.28 632.62 360.16 632.62 360.16 632.62"/><polygon class="cls-2" points="374.42 632.62 374.42 655.35 371.54 655.35 371.54 632.62 374.42 632.62 374.42 632.62"/><polygon class="cls-2" points="389.14 632.62 389.14 655.35 386.26 655.35 386.26 632.62 389.14 632.62 389.14 632.62"/><polygon class="cls-2" points="403.8 632.62 403.8 655.35 400.92 655.35 400.92 632.62 403.8 632.62 403.8 632.62"/><polygon class="cls-2" points="418.49 632.62 418.49 655.35 415.61 655.35 415.61 632.62 418.49 632.62 418.49 632.62"/><polygon class="cls-2" points="433.02 632.62 433.02 655.35 430.14 655.35 430.14 632.62 433.02 632.62 433.02 632.62"/><polygon class="cls-2" points="447.66 632.62 447.66 655.35 444.78 655.35 444.78 632.62 447.66 632.62 447.66 632.62"/><polygon class="cls-2" points="462.51 632.62 462.51 655.35 459.63 655.35 459.63 632.62 462.51 632.62 462.51 632.62"/><polygon class="cls-2" points="477.16 632.62 477.16 655.35 474.28 655.35 474.28 632.62 477.16 632.62 477.16 632.62"/><polygon class="cls-2" points="491.8 632.62 491.8 655.35 488.92 655.35 488.92 632.62 491.8 632.62 491.8 632.62"/><polygon class="cls-2" points="506.45 632.62 506.45 655.35 503.57 655.35 503.57 632.62 506.45 632.62 506.45 632.62"/><polygon class="cls-2" points="521.23 632.62 521.23 655.35 518.34 655.35 518.34 632.62 521.23 632.62 521.23 632.62"/><polygon class="cls-1" points="283.05 661.28 271.67 661.28 271.67 672.03 283.05 672.03 283.05 661.28 283.05 661.28"/><polygon class="cls-1" points="317.03 661.28 305.64 661.28 305.64 672.03 317.03 672.03 317.03 661.28 317.03 661.28"/><polygon class="cls-1" points="351.01 661.28 339.62 661.28 339.62 672.03 351.01 672.03 351.01 661.28 351.01 661.28"/><polygon class="cls-1" points="384.99 661.28 373.6 661.28 373.6 672.03 384.99 672.03 384.99 661.28 384.99 661.28"/><polygon class="cls-1" points="418.96 661.28 407.58 661.28 407.58 672.03 418.96 672.03 418.96 661.28 418.96 661.28"/><polygon class="cls-1" points="452.94 661.28 441.56 661.28 441.56 672.03 452.94 672.03 452.94 661.28 452.94 661.28"/><polygon class="cls-1" points="486.92 661.28 475.54 661.28 475.54 672.03 486.92 672.03 486.92 661.28 486.92 661.28"/><polygon class="cls-1" points="520.9 661.28 509.51 661.28 509.51 672.03 520.9 672.03 520.9 661.28 520.9 661.28"/><polygon class="cls-2" points="531.36 805.9 260.28 805.9 260.28 844.25 531.36 844.25 531.36 805.9 531.36 805.9"/><polygon class="cls-1" points="531.36 838.56 260.28 838.56 260.28 844.25 531.36 844.25 531.36 838.56 531.36 838.56"/><polygon class="cls-2" points="528.91 806.24 528.91 811.54 262.72 811.54 262.72 806.24 528.91 806.24 528.91 806.24"/><polygon class="cls-2" points="271.69 797.53 271.69 820.25 268.81 820.25 268.81 797.53 271.69 797.53 271.69 797.53"/><polygon class="cls-2" points="286.36 797.25 286.36 819.98 283.48 819.98 283.48 797.25 286.36 797.25 286.36 797.25"/><polygon class="cls-2" points="300.77 797.09 300.77 819.81 297.89 819.81 297.89 797.09 300.77 797.09 300.77 797.09"/><polygon class="cls-2" points="315.87 797.09 315.87 819.81 312.99 819.81 312.99 797.09 315.87 797.09 315.87 797.09"/><polygon class="cls-2" points="330.29 797.09 330.29 819.81 327.41 819.81 327.41 797.09 330.29 797.09 330.29 797.09"/><polygon class="cls-2" points="345 797.09 345 819.81 342.12 819.81 342.12 797.09 345 797.09 345 797.09"/><polygon class="cls-2" points="360.16 797.09 360.16 819.81 357.28 819.81 357.28 797.09 360.16 797.09 360.16 797.09"/><polygon class="cls-2" points="374.42 797.09 374.42 819.81 371.54 819.81 371.54 797.09 374.42 797.09 374.42 797.09"/><polygon class="cls-2" points="389.14 797.09 389.14 819.81 386.26 819.81 386.26 797.09 389.14 797.09 389.14 797.09"/><polygon class="cls-2" points="403.8 797.09 403.8 819.81 400.92 819.81 400.92 797.09 403.8 797.09 403.8 797.09"/><polygon class="cls-2" points="418.49 797.09 418.49 819.81 415.61 819.81 415.61 797.09 418.49 797.09 418.49 797.09"/><polygon class="cls-2" points="433.02 797.09 433.02 819.81 430.14 819.81 430.14 797.09 433.02 797.09 433.02 797.09"/><polygon class="cls-2" points="447.66 797.09 447.66 819.81 444.78 819.81 444.78 797.09 447.66 797.09 447.66 797.09"/><polygon class="cls-2" points="462.51 797.09 462.51 819.81 459.63 819.81 459.63 797.09 462.51 797.09 462.51 797.09"/><polygon class="cls-2" points="477.16 797.09 477.16 819.81 474.28 819.81 474.28 797.09 477.16 797.09 477.16 797.09"/><polygon class="cls-2" points="491.8 797.09 491.8 819.81 488.92 819.81 488.92 797.09 491.8 797.09 491.8 797.09"/><polygon class="cls-2" points="506.45 797.09 506.45 819.81 503.57 819.81 503.57 797.09 506.45 797.09 506.45 797.09"/><polygon class="cls-2" points="521.23 797.09 521.23 819.81 518.34 819.81 518.34 797.09 521.23 797.09 521.23 797.09"/><polygon class="cls-1" points="283.05 825.75 271.67 825.75 271.67 836.5 283.05 836.5 283.05 825.75 283.05 825.75"/><polygon class="cls-1" points="317.03 825.75 305.64 825.75 305.64 836.5 317.03 836.5 317.03 825.75 317.03 825.75"/><polygon class="cls-1" points="351.01 825.75 339.62 825.75 339.62 836.5 351.01 836.5 351.01 825.75 351.01 825.75"/><polygon class="cls-1" points="384.99 825.75 373.6 825.75 373.6 836.5 384.99 836.5 384.99 825.75 384.99 825.75"/><polygon class="cls-1" points="418.96 825.75 407.58 825.75 407.58 836.5 418.96 836.5 418.96 825.75 418.96 825.75"/><polygon class="cls-1" points="452.94 825.75 441.56 825.75 441.56 836.5 452.94 836.5 452.94 825.75 452.94 825.75"/><polygon class="cls-1" points="486.92 825.75 475.54 825.75 475.54 836.5 486.92 836.5 486.92 825.75 486.92 825.75"/><polygon class="cls-1" points="520.9 825.75 509.51 825.75 509.51 836.5 520.9 836.5 520.9 825.75 520.9 825.75"/><polygon class="cls-2" points="530.53 970.52 259.44 970.52 259.44 1008.87 530.53 1008.87 530.53 970.52 530.53 970.52"/><polygon class="cls-1" points="530.53 1003.18 259.44 1003.18 259.44 1008.87 530.53 1008.87 530.53 1003.18 530.53 1003.18"/><polygon class="cls-2" points="528.08 970.86 528.08 976.16 261.89 976.16 261.89 970.86 528.08 970.86 528.08 970.86"/><polygon class="cls-2" points="270.86 962.15 270.86 984.87 267.98 984.87 267.98 962.15 270.86 962.15 270.86 962.15"/><polygon class="cls-2" points="285.53 961.88 285.53 984.6 282.65 984.6 282.65 961.88 285.53 961.88 285.53 961.88"/><polygon class="cls-2" points="299.94 961.71 299.94 984.43 297.06 984.43 297.06 961.71 299.94 961.71 299.94 961.71"/><polygon class="cls-2" points="315.04 961.71 315.04 984.43 312.16 984.43 312.16 961.71 315.04 961.71 315.04 961.71"/><polygon class="cls-2" points="329.46 961.71 329.46 984.43 326.58 984.43 326.58 961.71 329.46 961.71 329.46 961.71"/><polygon class="cls-2" points="344.17 961.71 344.17 984.43 341.29 984.43 341.29 961.71 344.17 961.71 344.17 961.71"/><polygon class="cls-2" points="359.33 961.71 359.33 984.43 356.45 984.43 356.45 961.71 359.33 961.71 359.33 961.71"/><polygon class="cls-2" points="373.59 961.71 373.59 984.43 370.7 984.43 370.7 961.71 373.59 961.71 373.59 961.71"/><polygon class="cls-2" points="388.31 961.71 388.31 984.43 385.43 984.43 385.43 961.71 388.31 961.71 388.31 961.71"/><polygon class="cls-2" points="402.96 961.71 402.96 984.43 400.08 984.43 400.08 961.71 402.96 961.71 402.96 961.71"/><polygon class="cls-2" points="417.65 961.71 417.65 984.43 414.77 984.43 414.77 961.71 417.65 961.71 417.65 961.71"/><polygon class="cls-2" points="432.19 961.71 432.19 984.43 429.31 984.43 429.31 961.71 432.19 961.71 432.19 961.71"/><polygon class="cls-2" points="446.83 961.71 446.83 984.43 443.95 984.43 443.95 961.71 446.83 961.71 446.83 961.71"/><polygon class="cls-2" points="461.68 961.71 461.68 984.43 458.8 984.43 458.8 961.71 461.68 961.71 461.68 961.71"/><polygon class="cls-2" points="476.32 961.71 476.32 984.43 473.44 984.43 473.44 961.71 476.32 961.71 476.32 961.71"/><polygon class="cls-2" points="490.96 961.71 490.96 984.43 488.08 984.43 488.08 961.71 490.96 961.71 490.96 961.71"/><polygon class="cls-2" points="505.62 961.71 505.62 984.43 502.74 984.43 502.74 961.71 505.62 961.71 505.62 961.71"/><polygon class="cls-2" points="520.39 961.71 520.39 984.43 517.51 984.43 517.51 961.71 520.39 961.71 520.39 961.71"/><polygon class="cls-1" points="282.22 990.37 270.83 990.37 270.83 1001.12 282.22 1001.12 282.22 990.37 282.22 990.37"/><polygon class="cls-1" points="316.2 990.37 304.81 990.37 304.81 1001.12 316.2 1001.12 316.2 990.37 316.2 990.37"/><polygon class="cls-1" points="350.18 990.37 338.79 990.37 338.79 1001.12 350.18 1001.12 350.18 990.37 350.18 990.37"/><polygon class="cls-1" points="384.15 990.37 372.77 990.37 372.77 1001.12 384.15 1001.12 384.15 990.37 384.15 990.37"/><polygon class="cls-1" points="418.13 990.37 406.75 990.37 406.75 1001.12 418.13 1001.12 418.13 990.37 418.13 990.37"/><polygon class="cls-1" points="452.11 990.37 440.72 990.37 440.72 1001.12 452.11 1001.12 452.11 990.37 452.11 990.37"/><polygon class="cls-1" points="486.09 990.37 474.7 990.37 474.7 1001.12 486.09 1001.12 486.09 990.37 486.09 990.37"/><polygon class="cls-1" points="520.07 990.37 508.68 990.37 508.68 1001.12 520.07 1001.12 520.07 990.37 520.07 990.37"/><polygon class="cls-2" points="498.62 516.66 298.89 516.66 298.89 522.34 498.62 522.34 498.62 516.66 498.62 516.66"/><polygon class="cls-2" points="498.62 681.12 298.89 681.12 298.89 686.81 498.62 686.81 498.62 681.12 498.62 681.12"/><polygon class="cls-2" points="497.79 845.74 298.06 845.74 298.06 851.43 497.79 851.43 497.79 845.74 497.79 845.74"/><polygon class="cls-2" points="499.44 679.78 299.71 679.78 299.71 685.47 499.44 685.47 499.44 679.78 499.44 679.78"/><polygon class="cls-2" points="498.61 844.4 298.88 844.4 298.88 850.09 498.61 850.09 498.61 844.4 498.61 844.4"/><polygon class="cls-2" points="499.44 844.25 299.71 844.25 299.71 849.94 499.44 849.94 499.44 844.25 499.44 844.25"/><polygon class="cls-2" points="498.61 1008.87 298.88 1008.87 298.88 1014.56 498.61 1014.56 498.61 1008.87 498.61 1008.87"/><polygon class="cls-2" points="780.87 1026.44 0 1026.44 0 1117.53 780.87 1117.53 780.87 1026.44 780.87 1026.44"/><polygon class="cls-2" points="137.43 1007.66 125.91 1007.66 125.91 1100.3 137.43 1100.3 137.43 1007.66 137.43 1007.66"/><polygon class="cls-2" points="289.17 1006.68 277.64 1006.68 277.64 1099.33 289.17 1099.33 289.17 1006.68 289.17 1006.68"/><polygon class="cls-2" points="440.9 1005.7 429.37 1005.7 429.37 1098.35 440.9 1098.35 440.9 1005.7 440.9 1005.7"/><polygon class="cls-2" points="142.66 1021.51 120.34 1021.51 120.34 1026.44 142.66 1026.44 142.66 1021.51 142.66 1021.51"/><polygon class="cls-2" points="294.4 1020.53 272.07 1020.53 272.07 1025.46 294.4 1025.46 294.4 1020.53 294.4 1020.53"/><polygon class="cls-2" points="446.13 1019.56 423.81 1019.56 423.81 1024.48 446.13 1024.48 446.13 1019.56 446.13 1019.56"/><polygon class="cls-2" points="139.61 1017.59 123.39 1017.59 123.39 1021.51 139.61 1021.51 139.61 1017.59 139.61 1017.59"/><polygon class="cls-2" points="291.35 1016.61 275.13 1016.61 275.13 1020.53 291.35 1020.53 291.35 1016.61 291.35 1016.61"/><polygon class="cls-2" points="443.08 1015.63 426.86 1015.63 426.86 1019.56 443.08 1019.56 443.08 1015.63 443.08 1015.63"/></g></g></svg>