<svg xmlns="http://www.w3.org/2000/svg" viewBox="0 0 597.56 937.55"><defs><style>.cls-1{fill:#4a374b;}.cls-1,.cls-2{fill-rule:evenodd;}.cls-2{fill:#866668;}</style></defs><g id="Layer_2" data-name="Layer 2"><g id="Layer_1-2" data-name="Layer 1"><polygon class="cls-1" points="357 714.46 240.56 714.46 240.56 746.47 357 746.47 357 714.46 357 714.46"/><polygon class="cls-2" points="309.46 717.66 307.29 718.25 313.62 741.86 315.79 741.27 309.46 717.66 309.46 717.66"/><polygon class="cls-2" points="284.78 718.37 286.95 718.95 280.63 742.56 278.45 741.98 284.78 718.37 284.78 718.37"/><polygon class="cls-2" points="597.56 753.89 0 753.89 0 937.55 597.56 937.55 597.56 753.89 597.56 753.89"/><polygon class="cls-1" points="597.56 896.41 0 896.41 0 909.88 597.56 909.88 597.56 896.41 597.56 896.41"/><polygon class="cls-1" points="597.56 854.59 0 854.59 0 868.06 597.56 868.06 597.56 854.59 597.56 854.59"/><polygon class="cls-1" points="597.56 812.77 0 812.77 0 826.24 597.56 826.24 597.56 812.77 597.56 812.77"/><polygon class="cls-1" points="597.56 770.95 0 770.95 0 784.42 597.56 784.42 597.56 770.95 597.56 770.95"/><polygon class="cls-1" points="597.56 740.42 0 740.42 0 753.89 597.56 753.89 597.56 740.42 597.56 740.42"/><polygon class="cls-1" points="212.15 733.34 209.49 733.34 209.49 746.81 212.15 746.81 212.15 733.34 212.15 733.34"/><polygon class="cls-1" points="421.64 732.99 418.98 732.99 418.98 746.47 421.64 746.47 421.64 732.99 421.64 732.99"/><polygon class="cls-1" points="106.44 733.76 103.79 733.76 103.79 747.23 106.44 747.23 106.44 733.76 106.44 733.76"/><polygon class="cls-1" points="315.94 733.41 313.28 733.41 313.28 746.89 315.94 746.89 315.94 733.41 315.94 733.41"/><polygon class="cls-1" points="525.43 733.07 522.77 733.07 522.77 746.54 525.43 746.54 525.43 733.07 525.43 733.07"/><polygon class="cls-1" points="246.55 733.34 243.9 733.34 243.9 746.81 246.55 746.81 246.55 733.34 246.55 733.34"/><polygon class="cls-1" points="456.04 732.99 453.39 732.99 453.39 746.47 456.04 746.47 456.04 732.99 456.04 732.99"/><polygon class="cls-1" points="140.85 733.76 138.2 733.76 138.2 747.23 140.85 747.23 140.85 733.76 140.85 733.76"/><polygon class="cls-1" points="350.34 733.41 347.69 733.41 347.69 746.89 350.34 746.89 350.34 733.41 350.34 733.41"/><polygon class="cls-1" points="280.96 733.34 278.31 733.34 278.31 746.81 280.96 746.81 280.96 733.34 280.96 733.34"/><polygon class="cls-1" points="490.45 732.99 487.8 732.99 487.8 746.47 490.45 746.47 490.45 732.99 490.45 732.99"/><polygon class="cls-1" points="175.26 733.76 172.61 733.76 172.61 747.23 175.26 747.23 175.26 733.76 175.26 733.76"/><polygon class="cls-1" points="384.75 733.41 382.1 733.41 382.1 746.89 384.75 746.89 384.75 733.41 384.75 733.41"/><polygon class="cls-1" points="220.64 733.34 217.98 733.34 217.98 746.81 220.64 746.81 220.64 733.34 220.64 733.34"/><polygon class="cls-1" points="430.13 732.99 427.47 732.99 427.47 746.47 430.13 746.47 430.13 732.99 430.13 732.99"/><polygon class="cls-1" points="114.94 733.76 112.28 733.76 112.28 747.23 114.94 747.23 114.94 733.76 114.94 733.76"/><polygon class="cls-1" points="324.43 733.41 321.77 733.41 321.77 746.89 324.43 746.89 324.43 733.41 324.43 733.41"/><polygon class="cls-1" points="255.04 733.34 252.39 733.34 252.39 746.81 255.04 746.81 255.04 733.34 255.04 733.34"/><polygon class="cls-1" points="464.54 732.99 461.88 732.99 461.88 746.47 464.54 746.47 464.54 732.99 464.54 732.99"/><polygon class="cls-1" points="149.34 733.76 146.69 733.76 146.69 747.23 149.34 747.23 149.34 733.76 149.34 733.76"/><polygon class="cls-1" points="358.83 733.41 356.18 733.41 356.18 746.89 358.83 746.89 358.83 733.41 358.83 733.41"/><polygon class="cls-1" points="289.45 733.34 286.8 733.34 286.8 746.81 289.45 746.81 289.45 733.34 289.45 733.34"/><polygon class="cls-1" points="498.94 732.99 496.29 732.99 496.29 746.47 498.94 746.47 498.94 732.99 498.94 732.99"/><polygon class="cls-1" points="183.75 733.76 181.1 733.76 181.1 747.23 183.75 747.23 183.75 733.76 183.75 733.76"/><polygon class="cls-1" points="393.24 733.41 390.59 733.41 390.59 746.89 393.24 746.89 393.24 733.41 393.24 733.41"/><polygon class="cls-1" points="229.45 733.34 226.8 733.34 226.8 746.81 229.45 746.81 229.45 733.34 229.45 733.34"/><polygon class="cls-1" points="438.95 732.99 436.29 732.99 436.29 746.47 438.95 746.47 438.95 732.99 438.95 732.99"/><polygon class="cls-1" points="123.75 733.76 121.1 733.76 121.1 747.23 123.75 747.23 123.75 733.76 123.75 733.76"/><polygon class="cls-1" points="333.25 733.41 330.59 733.41 330.59 746.89 333.25 746.89 333.25 733.41 333.25 733.41"/><polygon class="cls-1" points="263.86 733.34 261.21 733.34 261.21 746.81 263.86 746.81 263.86 733.34 263.86 733.34"/><polygon class="cls-1" points="473.35 732.99 470.7 732.99 470.7 746.47 473.35 746.47 473.35 732.99 473.35 732.99"/><polygon class="cls-1" points="158.16 733.76 155.51 733.76 155.51 747.23 158.16 747.23 158.16 733.76 158.16 733.76"/><polygon class="cls-1" points="367.65 733.41 365 733.41 365 746.89 367.65 746.89 367.65 733.41 367.65 733.41"/><polygon class="cls-1" points="88.78 733.68 86.13 733.68 86.13 747.16 88.78 747.16 88.78 733.68 88.78 733.68"/><polygon class="cls-1" points="298.27 733.34 295.62 733.34 295.62 746.81 298.27 746.81 298.27 733.34 298.27 733.34"/><polygon class="cls-1" points="507.76 732.99 505.11 732.99 505.11 746.47 507.76 746.47 507.76 732.99 507.76 732.99"/><polygon class="cls-1" points="192.57 733.76 189.92 733.76 189.92 747.23 192.57 747.23 192.57 733.76 192.57 733.76"/><polygon class="cls-1" points="402.06 733.41 399.41 733.41 399.41 746.89 402.06 746.89 402.06 733.41 402.06 733.41"/><polygon class="cls-1" points="238.3 733.34 235.65 733.34 235.65 746.81 238.3 746.81 238.3 733.34 238.3 733.34"/><polygon class="cls-1" points="447.8 732.99 445.14 732.99 445.14 746.47 447.8 746.47 447.8 732.99 447.8 732.99"/><polygon class="cls-1" points="132.6 733.76 129.95 733.76 129.95 747.23 132.6 747.23 132.6 733.76 132.6 733.76"/><polygon class="cls-1" points="342.1 733.41 339.44 733.41 339.44 746.89 342.1 746.89 342.1 733.41 342.1 733.41"/><polygon class="cls-1" points="272.71 733.34 270.06 733.34 270.06 746.81 272.71 746.81 272.71 733.34 272.71 733.34"/><polygon class="cls-1" points="482.2 732.99 479.55 732.99 479.55 746.47 482.2 746.47 482.2 732.99 482.2 732.99"/><polygon class="cls-1" points="167.01 733.76 164.36 733.76 164.36 747.23 167.01 747.23 167.01 733.76 167.01 733.76"/><polygon class="cls-1" points="376.5 733.41 373.85 733.41 373.85 746.89 376.5 746.89 376.5 733.41 376.5 733.41"/><polygon class="cls-1" points="97.63 733.68 94.97 733.68 94.97 747.16 97.63 747.16 97.63 733.68 97.63 733.68"/><polygon class="cls-1" points="307.12 733.34 304.47 733.34 304.47 746.81 307.12 746.81 307.12 733.34 307.12 733.34"/><polygon class="cls-1" points="516.61 732.99 513.96 732.99 513.96 746.47 516.61 746.47 516.61 732.99 516.61 732.99"/><polygon class="cls-1" points="201.42 733.76 198.77 733.76 198.77 747.23 201.42 747.23 201.42 733.76 201.42 733.76"/><polygon class="cls-1" points="410.91 733.41 408.26 733.41 408.26 746.89 410.91 746.89 410.91 733.41 410.91 733.41"/><polygon class="cls-1" points="206.32 649.81 204.29 649.81 204.29 660.13 206.32 660.13 206.32 649.81 206.32 649.81"/><polygon class="cls-1" points="366.9 649.54 364.86 649.54 364.86 659.87 366.9 659.87 366.9 649.54 366.9 649.54"/><polygon class="cls-1" points="285.88 649.86 283.84 649.86 283.84 660.19 285.88 660.19 285.88 649.86 285.88 649.86"/><polygon class="cls-1" points="232.69 649.81 230.66 649.81 230.66 660.13 232.69 660.13 232.69 649.81 232.69 649.81"/><polygon class="cls-1" points="393.27 649.54 391.24 649.54 391.24 659.87 393.27 659.87 393.27 649.54 393.27 649.54"/><polygon class="cls-1" points="312.25 649.86 310.22 649.86 310.22 660.19 312.25 660.19 312.25 649.86 312.25 649.86"/><polygon class="cls-1" points="259.07 649.81 257.03 649.81 257.03 660.13 259.07 660.13 259.07 649.81 259.07 649.81"/><polygon class="cls-1" points="338.62 649.86 336.59 649.86 336.59 660.19 338.62 660.19 338.62 649.86 338.62 649.86"/><polygon class="cls-1" points="212.83 649.81 210.79 649.81 210.79 660.13 212.83 660.13 212.83 649.81 212.83 649.81"/><polygon class="cls-1" points="373.4 649.54 371.37 649.54 371.37 659.87 373.4 659.87 373.4 649.54 373.4 649.54"/><polygon class="cls-1" points="292.39 649.86 290.35 649.86 290.35 660.19 292.39 660.19 292.39 649.86 292.39 649.86"/><polygon class="cls-1" points="239.2 649.81 237.17 649.81 237.17 660.13 239.2 660.13 239.2 649.81 239.2 649.81"/><polygon class="cls-1" points="318.76 649.86 316.73 649.86 316.73 660.19 318.76 660.19 318.76 649.86 318.76 649.86"/><polygon class="cls-1" points="265.58 649.81 263.54 649.81 263.54 660.13 265.58 660.13 265.58 649.81 265.58 649.81"/><polygon class="cls-1" points="345.13 649.86 343.1 649.86 343.1 660.19 345.13 660.19 345.13 649.86 345.13 649.86"/><polygon class="cls-1" points="219.59 649.81 217.55 649.81 217.55 660.13 219.59 660.13 219.59 649.81 219.59 649.81"/><polygon class="cls-1" points="380.17 649.54 378.13 649.54 378.13 659.87 380.17 659.87 380.17 649.54 380.17 649.54"/><polygon class="cls-1" points="299.14 649.86 297.11 649.86 297.11 660.19 299.14 660.19 299.14 649.86 299.14 649.86"/><polygon class="cls-1" points="245.96 649.81 243.93 649.81 243.93 660.13 245.96 660.13 245.96 649.81 245.96 649.81"/><polygon class="cls-1" points="325.52 649.86 323.49 649.86 323.49 660.19 325.52 660.19 325.52 649.86 325.52 649.86"/><polygon class="cls-1" points="272.33 649.81 270.3 649.81 270.3 660.13 272.33 660.13 272.33 649.81 272.33 649.81"/><polygon class="cls-1" points="351.89 649.86 349.86 649.86 349.86 660.19 351.89 660.19 351.89 649.86 351.89 649.86"/><polygon class="cls-1" points="226.37 649.81 224.34 649.81 224.34 660.13 226.37 660.13 226.37 649.81 226.37 649.81"/><polygon class="cls-1" points="386.95 649.54 384.91 649.54 384.91 659.87 386.95 659.87 386.95 649.54 386.95 649.54"/><polygon class="cls-1" points="305.93 649.86 303.89 649.86 303.89 660.19 305.93 660.19 305.93 649.86 305.93 649.86"/><polygon class="cls-1" points="252.75 649.81 250.71 649.81 250.71 660.13 252.75 660.13 252.75 649.81 252.75 649.81"/><polygon class="cls-1" points="332.3 649.86 330.27 649.86 330.27 660.19 332.3 660.19 332.3 649.86 332.3 649.86"/><polygon class="cls-1" points="279.12 649.81 277.08 649.81 277.08 660.13 279.12 660.13 279.12 649.81 279.12 649.81"/><polygon class="cls-1" points="358.68 649.86 356.64 649.86 356.64 660.19 358.68 660.19 358.68 649.86 358.68 649.86"/><polygon class="cls-2" points="393.27 658.05 204.29 658.05 204.29 662.34 393.27 662.34 393.27 658.05 393.27 658.05"/><polygon class="cls-2" points="317.99 159.81 279.57 159.81 264.58 658.05 332.98 658.05 317.99 159.81 317.99 159.81"/><path class="cls-1" d="M351.7,260.7H245.86c0,12.72,13.59,23,30.36,23h45.12c16.76,0,30.36-10.3,30.36-23Z"/><path class="cls-1" d="M351.7,254.81H245.86c0-12.71,13.59-23,30.36-23h45.12c16.76,0,30.36,10.31,30.36,23Z"/><polygon class="cls-2" points="351.7 254.81 245.86 254.81 245.86 260.7 351.7 260.7 351.7 254.81 351.7 254.81"/><path class="cls-2" d="M254.28,238.6v38.31a1,1,0,0,1-1,1h0a1,1,0,0,1-1-1V238.6a1,1,0,0,1,1-1h0a1,1,0,0,1,1,1Z"/><path class="cls-2" d="M345.68,238.41a1,1,0,0,1,1-1h0a1,1,0,0,1,1,1v38.31a1,1,0,0,1-1,1h0a1,1,0,0,1-1-1V238.41Z"/><path class="cls-2" d="M263.21,235.67v44.18a1,1,0,0,1-1,1h0a1,1,0,0,1-1-1V235.67a1,1,0,0,1,1-1h0a1,1,0,0,1,1,1Z"/><path class="cls-2" d="M336.75,235.47a1,1,0,0,1,1-1h0a1,1,0,0,1,.7.29,1,1,0,0,1,.28.69v44.18a1,1,0,0,1-1,1h0a.94.94,0,0,1-.69-.29,1,1,0,0,1-.29-.69V235.47Z"/><path class="cls-2" d="M272.14,232.33v50.85a1,1,0,0,1-.29.69.94.94,0,0,1-.69.29h0a1,1,0,0,1-1-1V232.33a.94.94,0,0,1,.29-.69,1,1,0,0,1,.69-.29h0a1,1,0,0,1,1,1Z"/><path class="cls-2" d="M327.83,232.14a1,1,0,0,1,.28-.69,1,1,0,0,1,.69-.29h0a1,1,0,0,1,.69.29,1,1,0,0,1,.28.69V283a1,1,0,0,1-.28.7,1,1,0,0,1-.69.28h0a1,1,0,0,1-.69-.28,1,1,0,0,1-.28-.7V232.14Z"/><path class="cls-2" d="M281.07,228.54V287a1,1,0,0,1-1,1h0a1,1,0,0,1-1-1V228.54a1,1,0,0,1,1-1h0a1,1,0,0,1,1,1Z"/><path class="cls-2" d="M318.9,228.35a1,1,0,0,1,1-1h0a1,1,0,0,1,1,1v58.42a1,1,0,0,1-1,1h0a1,1,0,0,1-1-1V228.35Z"/><path class="cls-2" d="M290,224.24v67a1,1,0,0,1-1,1h0a1,1,0,0,1-1-1v-67a1,1,0,0,1,1-1h0a1,1,0,0,1,1,1Z"/><path class="cls-2" d="M310,224a1,1,0,0,1,1-1h0a1,1,0,0,1,1,1v67a1,1,0,0,1-1,1h0a1,1,0,0,1-1-1V224Z"/><path class="cls-2" d="M298.92,219.34v76.83a.94.94,0,0,1-.29.69,1,1,0,0,1-.69.29h0a1,1,0,0,1-1-1V219.34a1,1,0,0,1,.29-.69,1,1,0,0,1,.69-.29h0a1,1,0,0,1,.69.29,1,1,0,0,1,.29.69Z"/><path class="cls-2" d="M301,219.15a1,1,0,0,1,.29-.69.94.94,0,0,1,.69-.29h0a1,1,0,0,1,1,1V296a1,1,0,0,1-1,1h0a1,1,0,0,1-.69-.28,1,1,0,0,1-.29-.7V219.15Z"/><path class="cls-1" d="M393.27,662.34h-189c0,30.55,31.85,55.32,71.14,55.32h46.69c39.3,0,71.15-24.77,71.15-55.32Z"/><polygon class="cls-2" points="357 710.47 240.56 710.47 228.71 720.87 368.85 720.87 357 710.47 357 710.47"/><polygon class="cls-1" points="311.37 70.02 288.59 70.02 288.59 159.84 311.37 159.84 311.37 70.02 311.37 70.02"/><polygon class="cls-2" points="311.37 70.02 288.59 70.02 288.59 138.94 311.37 138.94 311.37 70.02 311.37 70.02"/><polygon class="cls-1" points="311.37 70.02 288.59 70.02 288.59 78.17 311.37 78.17 311.37 70.02 311.37 70.02"/><polygon class="cls-1" points="303.65 0 296.31 0 296.31 70.02 303.65 70.02 303.65 0 303.65 0"/></g></g></svg>