<svg xmlns="http://www.w3.org/2000/svg" xmlns:xlink="http://www.w3.org/1999/xlink" viewBox="0 0 212.58 203.38"><defs><style>.cls-1{fill:#1a2b2b;}.cls-2{fill:url(#linear-gradient);}.cls-3{fill:none;stroke:#1a2b2b;stroke-miterlimit:10;stroke-width:1.01px;}.cls-4{fill:url(#linear-gradient-2);}.cls-5{fill:url(#linear-gradient-3);}.cls-6{fill:#d63550;}.cls-7{fill:url(#linear-gradient-4);}.cls-8{fill:url(#linear-gradient-5);}.cls-9{fill:url(#linear-gradient-6);}.cls-10{fill:url(#linear-gradient-7);}.cls-11{fill:url(#linear-gradient-8);}.cls-12{fill:url(#linear-gradient-9);}</style><linearGradient id="linear-gradient" x1="75.77" y1="107.61" x2="182.3" y2="107.61" gradientUnits="userSpaceOnUse"><stop offset="0" stop-color="#404a4b"/><stop offset="0.56" stop-color="#2d3a3b"/><stop offset="1" stop-color="#1a2b2b"/></linearGradient><linearGradient id="linear-gradient-2" x1="61.64" y1="121.45" x2="120.72" y2="121.45" xlink:href="#linear-gradient"/><linearGradient id="linear-gradient-3" x1="0" y1="156.82" x2="101.9" y2="156.82" xlink:href="#linear-gradient"/><linearGradient id="linear-gradient-4" x1="-87.34" y1="-255.48" x2="-99.7" y2="-235.01" gradientTransform="matrix(-0.44, 0.9, -0.9, -0.44, -222.07, 99.51)" xlink:href="#linear-gradient"/><linearGradient id="linear-gradient-5" x1="-48.85" y1="-281.46" x2="-61.22" y2="-260.99" gradientTransform="translate(-229.19 143.62) rotate(106.9)" xlink:href="#linear-gradient"/><linearGradient id="linear-gradient-6" x1="-136.55" y1="-316.99" x2="-148.92" y2="-296.52" gradientTransform="matrix(0.98, 0.21, -0.21, 0.98, 191.96, 421.56)" xlink:href="#linear-gradient"/><linearGradient id="linear-gradient-7" x1="-178.59" y1="-280.14" x2="-190.96" y2="-259.67" gradientTransform="translate(358.92 273.16) rotate(-26.78)" xlink:href="#linear-gradient"/><linearGradient id="linear-gradient-8" x1="-85.37" y1="-337.38" x2="-97.74" y2="-316.91" gradientTransform="translate(101.04 415.97) rotate(27.33)" xlink:href="#linear-gradient"/><linearGradient id="linear-gradient-9" x1="-115.19" y1="-359.66" x2="-127.56" y2="-339.19" gradientTransform="translate(275.16 402.45)" xlink:href="#linear-gradient"/></defs><g id="Layer_2" data-name="Layer 2"><g id="OBJECTS"><path class="cls-1" d="M147,203.22l13.9-62.08,17.76-28.41s15.82-58.3,34-74.54c0,0-20.07,66.05-24.7,80.08l-15.44,29.89-13.51,55.06Z"/><path class="cls-2" d="M165.7,203.22h16.6L152.83,90.8a53.35,53.35,0,0,0-12.94-23.15C125.34,52.29,97.15,24.05,75.77,12c6.94,18.82,34,55.35,60.6,70.48Z"/><path class="cls-1" d="M129,203.22h9.49S147.64,27.68,137.22,0C125.93,50.92,129,203.22,129,203.22Z"/><path class="cls-3" d="M165.88,34s-7.82,97.42-23.67,169.18"/><path class="cls-4" d="M120.72,203.22S107.11,106,61.66,39.67c-1.16,33.58,53.27,163.55,53.27,163.55Z"/><path class="cls-1" d="M111.65,203.22,85.59,147,54.33,107.61S31.17,90.22,22.19,87.73a242.58,242.58,0,0,0,24.32,24.36l25.76,33.45a50.34,50.34,0,0,1,7.6,13.92l15.56,43.76Z"/><path class="cls-3" d="M99.1,62.92s19.3,70.15,25.09,140.3"/><path class="cls-3" d="M52.78,84.69s10,85,21.23,118.53"/><path class="cls-5" d="M101.9,203.22,51.24,141.7S24,120.11,0,110.42c15.34,14.67,45.45,35.06,45.45,35.06l43.13,57.74Z"/><path class="cls-6" d="M54.11,97.46s-13-15.94-13.55-21.29,6.77.85,6.77.85.35-5.11,2.9-5.11,3.3,5,3.3,5,2.68-5.11,5.47-4.26S54.11,97.46,54.11,97.46Z"/><path class="cls-6" d="M104.11,83S86.84,71.35,84.74,66.37s6.75-1.05,6.75-1.05-1.2-5,1.24-5.68,4.66,3.86,4.66,3.86,1-5.62,4-5.57S104.11,83,104.11,83Z"/><path class="cls-6" d="M163.47,52.58s-8.08-18.7-7.07-24,6.29,2.56,6.29,2.56,1.77-4.83,4.22-4.18,1.78,5.65,1.78,5.65,4-4.23,6.47-2.69S163.47,52.58,163.47,52.58Z"/><path class="cls-7" d="M41.25,120.66c-6.19-3-12.31-4.37-16.66-4,2.33,3.71,7.13,7.73,13.31,10.77s12.31,4.37,16.67,3.95C52.23,127.72,47.43,123.69,41.25,120.66Z"/><path class="cls-8" d="M47.76,166.56c-6.6-2-12.85-2.34-17.08-1.23,2.89,3.28,8.28,6.49,14.87,8.49S58.4,176.16,62.63,175C59.73,171.76,54.35,168.56,47.76,166.56Z"/><path class="cls-9" d="M112.62,90.72c-1.43,6.74-1.23,13,.25,17.12,3-3.17,5.74-8.81,7.17-15.55s1.23-13-.24-17.12C116.78,78.34,114.05,84,112.62,90.72Z"/><path class="cls-10" d="M69,116.63c3.1,6.16,7.18,10.91,10.91,13.2.37-4.36-1-10.46-4.13-16.62S68.6,102.31,64.88,100C64.5,104.38,65.91,110.48,69,116.63Z"/><path class="cls-11" d="M167,81.3c-3.17,6.12-4.63,12.21-4.3,16.58,3.75-2.26,7.88-7,11-13.1s4.63-12.21,4.3-16.57C174.25,70.46,170.12,75.18,167,81.3Z"/><ellipse class="cls-12" cx="154.05" cy="52.58" rx="3.8" ry="16.7" transform="translate(-8.11 66.72) rotate(-23.83)"/></g></g></svg>