<svg xmlns="http://www.w3.org/2000/svg" xmlns:xlink="http://www.w3.org/1999/xlink" viewBox="0 0 624.28 261.7"><defs><style>.cls-1{opacity:0.38;fill:url(#linear-gradient);}.cls-2{fill:url(#linear-gradient-2);}.cls-3{fill:url(#linear-gradient-3);}.cls-4{fill:url(#linear-gradient-4);}.cls-5{fill:url(#linear-gradient-5);}.cls-6{fill:url(#linear-gradient-6);}.cls-7{fill:url(#linear-gradient-7);}.cls-8{fill:url(#linear-gradient-8);}.cls-9{fill:url(#linear-gradient-9);}.cls-10{fill:url(#linear-gradient-10);}.cls-11{fill:url(#linear-gradient-11);}.cls-12{fill:url(#linear-gradient-12);}.cls-13{fill:url(#linear-gradient-13);}.cls-14{fill:url(#linear-gradient-14);}</style><linearGradient id="linear-gradient" x1="312.14" y1="108.47" x2="312.14" y2="222.73" gradientUnits="userSpaceOnUse"><stop offset="0.25" stop-color="#905e7c"/><stop offset="0.36" stop-color="#93607d" stop-opacity="0.97"/><stop offset="0.49" stop-color="#9d6580" stop-opacity="0.87"/><stop offset="0.62" stop-color="#ac6d84" stop-opacity="0.71"/><stop offset="0.77" stop-color="#c2798b" stop-opacity="0.49"/><stop offset="0.91" stop-color="#de8893" stop-opacity="0.2"/><stop offset="1" stop-color="#f29299" stop-opacity="0"/></linearGradient><linearGradient id="linear-gradient-2" x1="312.14" y1="38.54" x2="312.14" y2="149.11" gradientUnits="userSpaceOnUse"><stop offset="0" stop-color="#3a528c"/><stop offset="0.14" stop-color="#3f538b"/><stop offset="0.3" stop-color="#4d5588"/><stop offset="0.47" stop-color="#645884"/><stop offset="0.65" stop-color="#855c7e"/><stop offset="0.84" stop-color="#af6276"/><stop offset="1" stop-color="#d9686e"/></linearGradient><linearGradient id="linear-gradient-3" x1="361.69" y1="100.06" x2="624.28" y2="100.06" gradientUnits="userSpaceOnUse"><stop offset="0" stop-color="#30386e"/><stop offset="1" stop-color="#4f7cb0" stop-opacity="0"/></linearGradient><linearGradient id="linear-gradient-4" x1="271.66" y1="28.79" x2="271.66" y2="106.09" gradientUnits="userSpaceOnUse"><stop offset="0" stop-color="#4f7cb0"/><stop offset="0.13" stop-color="#4f7cb0" stop-opacity="0.97"/><stop offset="0.28" stop-color="#4f7cb0" stop-opacity="0.89"/><stop offset="0.45" stop-color="#4f7cb0" stop-opacity="0.76"/><stop offset="0.62" stop-color="#4f7cb0" stop-opacity="0.57"/><stop offset="0.79" stop-color="#4f7cb0" stop-opacity="0.33"/><stop offset="0.97" stop-color="#4f7cb0" stop-opacity="0.04"/><stop offset="1" stop-color="#4f7cb0" stop-opacity="0"/></linearGradient><linearGradient id="linear-gradient-5" x1="121.18" y1="-14.62" x2="121.18" y2="33.12" gradientUnits="userSpaceOnUse"><stop offset="0" stop-color="#faf2f0"/><stop offset="1" stop-color="#f5bcbf"/></linearGradient><linearGradient id="linear-gradient-6" x1="180.56" y1="34.41" x2="180.56" y2="112.17" xlink:href="#linear-gradient-4"/><linearGradient id="linear-gradient-7" x1="157.84" y1="102.67" x2="157.84" y2="147.25" gradientUnits="userSpaceOnUse"><stop offset="0" stop-color="#2c5949"/><stop offset="0.31" stop-color="#2e5a4a"/><stop offset="0.46" stop-color="#365e4e"/><stop offset="0.57" stop-color="#436456"/><stop offset="0.66" stop-color="#556e60"/><stop offset="0.75" stop-color="#6d7a6e"/><stop offset="0.82" stop-color="#8a897e"/><stop offset="0.89" stop-color="#ad9a92"/><stop offset="0.95" stop-color="#d5aea8"/><stop offset="1" stop-color="#f6bfbb"/></linearGradient><linearGradient id="linear-gradient-8" x1="157.99" y1="119.63" x2="157.99" y2="92.58" gradientUnits="userSpaceOnUse"><stop offset="0" stop-color="#284242"/><stop offset="0.89" stop-color="#1a2b2b"/></linearGradient><linearGradient id="linear-gradient-9" x1="101.82" y1="119.63" x2="101.82" y2="92.58" xlink:href="#linear-gradient-8"/><linearGradient id="linear-gradient-10" x1="260.01" y1="119.63" x2="260.01" y2="92.58" xlink:href="#linear-gradient-8"/><linearGradient id="linear-gradient-11" x1="38.32" y1="119.63" x2="38.32" y2="92.58" xlink:href="#linear-gradient-8"/><linearGradient id="linear-gradient-12" x1="12.37" y1="119.63" x2="12.37" y2="92.58" xlink:href="#linear-gradient-8"/><linearGradient id="linear-gradient-13" x1="71.19" y1="119.63" x2="71.19" y2="92.58" xlink:href="#linear-gradient-8"/><linearGradient id="linear-gradient-14" x1="157.84" y1="121.66" x2="157.84" y2="180.73" gradientUnits="userSpaceOnUse"><stop offset="0" stop-color="#3c5e4f"/><stop offset="1" stop-color="#f19097" stop-opacity="0"/></linearGradient></defs><g id="Layer_2" data-name="Layer 2"><g id="OBJECTS"><path class="cls-1" d="M0,131.16H624.28s-10.59,7.31-17.34,9-13.5,7.6-20.82,7.18-22.5.13-42.75,8-62.47,20.38-72.56,24.19-26.44,1.5-44.44-4-48.37,8-64.68,17.85-35.42,11.83-45,8.56-42.2-21.16-57.39-13.06-86.25,49.18-99.94,57-27.18,12.79-36.75,13.43-34.87,5-44.43,0S0,199.74,0,199.74Z"/><path class="cls-2" d="M0,131.16H624.28s-10.59-7.31-17.34-9-13.5-7.6-20.82-7.17-22.5-.14-42.75-8S480.9,86.59,470.81,82.79s-26.44-1.51-44.44,4S378,78.77,361.69,69s-35.42-11.82-45-8.56-42.2,21.17-57.39,13.06-86.25-49.17-99.94-57S132.19,3.62,122.62,3,87.75-2,78.19,3,0,62.58,0,62.58Z"/><path class="cls-3" d="M451.41,108.1A29.47,29.47,0,0,1,475,106.36c9.31,3.14,32.55,16.7,46.06,24.8H624.28s-10.59-7.31-17.34-9-13.5-7.6-20.82-7.17-22.5-.14-42.75-8S480.9,86.59,470.81,82.79s-26.44-1.51-44.44,4S378,78.77,361.69,69c15.18,10.73,25.31,27.61,45,29.29S437.62,98.54,451.41,108.1Z"/><path class="cls-4" d="M319.5,123.66s27.37.38,35.25-6.37c10.87,1.12,15.75,1.87,22.12,4.12s29.63,3.38,29.63,3.38-39-12.57-48.38-14.63-21.06,3.92-33.75-6.37C297,81.57,278.53,86.63,248,67.21c-25.4-14.29-77.17-44.2-88.65-50.8A125.79,125.79,0,0,0,136.82,6.07c12.74,5.18,28.93,30.59,40.93,44.09s25.5,9,40.87,27.38,45.75,53.62,45.75,53.62h48.22Z"/><path class="cls-5" d="M81.75,17.5c0,6,12.56,21.1,14.44,5.79,9.93,10.56,24.74,19.1,24.46,8.17,12.29,8.76,21.29,8.39,22.6-4.36s14.81-5.25,20.06-1.31,13.88,4.12,13.88,4.12,6.44,5.52,13.34,4.45h0c-14.23-8.19-25.93-15.26-30.78-18-9-5.15-17.66-9.56-25.41-11.8,0,0-7.08-1.68-11.62-2.25-9.51-1.2-35.53-4.62-45.1.37-3.35,1.75-14.13,9.91-25.8,19.43,0,0,10.06-.21,16.52-6.21C62.62,22.79,72.56,25.14,81.75,17.5Z"/><path class="cls-6" d="M221.34,123.29s-19.4-19.41-32.06-34.6-15.47-18-24.47-22.8-25-20-25-20,2.25,16.88,11,25.88,11.72,9.25,16.87,21.65,8.16,28.41,8.16,28.41Z"/><path class="cls-7" d="M312.45,131.16s-19.67-5.62-23.61-7-7.43-3.09-7.43-3.09a4.49,4.49,0,0,1-4.29,1.68,23.22,23.22,0,0,1-4.87-1.68s-3.43,1.12-4.24,0a12.52,12.52,0,0,1-1.39-2.82s-.2,1.65-2.91,1.25a7.45,7.45,0,0,1-4.4-2.65s-7.06,2-9.57,1.12-4.21-4.5-4.21-4.5-6.36,3.94-7.68,3.66-3-2.11-3-2.11-3.93,2.39-5.06,1.55a6.8,6.8,0,0,1-1.69-3.1s-4.22-2-5.34-2.25c-2.53,2-7-2-7-2s-.28,7-2.53,5.77-6.47,3.23-8.72,0c-1.41,2.67-5.63-.14-6.19-2.67-1.69,1.68-4.5-.28-4.5-.28s-3.37,4.77-5.06,2.95-2.53-2.95-2.53-2.95-4.78.56-4.5-2.82c-2.25,2-7.32-3.93-7.32-3.93s-4.78,2.25-6.46,0a13.6,13.6,0,0,1-7,2.53s-8.92,4.22-7.55-4.5c-5.66-.28-8.2-3.63-8.2-3.63s-4.07,2.64-5.62-1.58c-3.66,5.35-9.42,5.63-10.83,1.41-2.25,2-5.2-3-5.2-3s-4.83-1-4.6-3.52c-1.45,4.78-6,2.39-6,2.39s-1.55,7.88-3.37,5.63-1.69-3-1.69-3A7.09,7.09,0,0,1,102,93.75a21.31,21.31,0,0,1-5.48,5.49s-.85,5.91-2.81,5.62S92,101.49,90,101.21s-3.12.56-5.51.14-3.66.14-4.22-1.13-1-3.37-2.11-3.51S73,95.58,72.7,94.18s.85-2.25-.84-2.82-4.36-.84-6.19-2.81,1-1-2.67-3.51-4.22-2.25-4.92-3.38-2,8.16-4.36,8-1.41,7.59-5.06,7.87-5.21-2.67-8.72-1.83-2.39,4.08-4.64,4.93c0,0-5.07,9.7-7.74,7,.42,4.36-5.48,5.48-5.48,5.48s-3.94-7.31-5.77-5.91-.14,3.8-3.51,2.54-4.36-5.63-4.36-5.63l-4.5.84-.71,26.16Z"/><path class="cls-8" d="M113,101.82s3,4.92,5.2,3c1.41,4.22,7.17,3.94,10.83-1.41,1.55,4.22,5.62,1.58,5.62,1.58s2.54,3.35,8.2,3.63c-1.37,8.72,7.55,4.5,7.55,4.5a13.6,13.6,0,0,0,7-2.53c1.68,2.25,6.46,0,6.46,0s5.07,5.9,7.32,3.93c-.28,3.38,4.5,2.82,4.5,2.82s.84,1.12,2.53,2.95,5.06-2.95,5.06-2.95,2.81,2,4.5.28c.56,2.53,4.78,5.34,6.19,2.67,2.25,3.23,6.47-1.27,8.72,0,1.65.92,2.24-2.63,2.44-4.58a2.8,2.8,0,0,1-.66-.67c-1.41,2.67-5.63-.14-6.19-2.67-1.69,1.68-4.5-.28-4.5-.28s-3.37,4.77-5.06,2.95-2.53-2.95-2.53-2.95-4.78.56-4.5-2.82c-2.25,2-7.32-3.93-7.32-3.93s-4.78,2.25-6.46,0a13.6,13.6,0,0,1-7,2.53s-8.92,4.22-7.55-4.5c-5.66-.28-8.2-3.63-8.2-3.63s-4.07,2.64-5.62-1.58c-3.66,5.35-9.42,5.63-10.83,1.41-2.25,2-5.2-3-5.2-3s-4.83-1-4.6-3.52c-1.45,4.78-6,2.39-6,2.39s-.86,4.41-2.07,5.69A12.76,12.76,0,0,0,113,101.82Z"/><path class="cls-9" d="M97.36,103.36s-.14.71,1.69,3,3.37-5.63,3.37-5.63,4,2.14,5.7-1.72a1.87,1.87,0,0,1-.26-.86A7.09,7.09,0,0,1,102,93.75a21.31,21.31,0,0,1-5.48,5.49,19.21,19.21,0,0,1-1,3.7A6.09,6.09,0,0,0,97.36,103.36Z"/><path class="cls-10" d="M212.25,116.44c1.12.28,5.34,2.25,5.34,2.25a6.8,6.8,0,0,0,1.69,3.1c1.13.84,5.06-1.55,5.06-1.55s1.69,1.83,3,2.11,7.68-3.66,7.68-3.66,1.69,3.66,4.21,4.5,9.57-1.12,9.57-1.12a7.45,7.45,0,0,0,4.4,2.65c2.71.4,2.91-1.25,2.91-1.25a12.52,12.52,0,0,0,1.39,2.82c.81,1.12,4.24,0,4.24,0a23.22,23.22,0,0,0,4.87,1.68,4.49,4.49,0,0,0,4.29-1.68s3.5,1.68,7.43,3.09c1,.37,3.12,1,5.65,1.78h28.46s-19.67-5.62-23.61-7-7.43-3.09-7.43-3.09a4.49,4.49,0,0,1-4.29,1.68,23.22,23.22,0,0,1-4.87-1.68s-3.43,1.12-4.24,0a12.52,12.52,0,0,1-1.39-2.82s-.2,1.65-2.91,1.25a7.45,7.45,0,0,1-4.4-2.65s-7.06,2-9.57,1.12-4.21-4.5-4.21-4.5-6.36,3.94-7.68,3.66-3-2.11-3-2.11-3.93,2.39-5.06,1.55a6.8,6.8,0,0,1-1.69-3.1s-4.22-2-5.34-2.25c-2.53,2-7-2-7-2s-.28,7-2.53,5.77c-1.42-.8-3.62.69-5.62,1.09C209.05,116.88,210.92,117.48,212.25,116.44Z"/><path class="cls-11" d="M38.16,102.8c2.92-.22,2.88-5.22,4-7.13a5.1,5.1,0,0,0-2.19,0c-3.52.85-2.39,4.08-4.64,4.93,0,0-.3.56-.78,1.38A7,7,0,0,0,38.16,102.8Z"/><path class="cls-12" d="M5.81,112.5c1.83-1.4,5.77,5.91,5.77,5.91s5.9-1.12,5.48-5.48c1.11,1.1,2.62.09,4-1.48-1.29-2.06-3.51-5.15-4.76-4.2-1.83,1.41-.14,3.8-3.51,2.54s-4.36-5.63-4.36-5.63l-4.5.84-.28,10.39C5.18,115.48,4.31,113.66,5.81,112.5Z"/><path class="cls-13" d="M55.17,93.8c1.83,2,4.5,2.25,6.19,2.81s.56,1.41.84,2.82,4.36,2.39,5.49,2.53,1.54,2.25,2.11,3.51,1.82.71,4.22,1.13,3.51-.42,5.51-.14,1.66,3.37,3.63,3.65S86,104.49,86,104.49a20.72,20.72,0,0,0,3.76-3.31c-1.81-.16-3,.57-5.21.17s-3.66.14-4.22-1.13-1-3.37-2.11-3.51S73,95.58,72.7,94.18s.85-2.25-.84-2.82-4.36-.84-6.19-2.81,1-1-2.67-3.51-4.22-2.25-4.92-3.38-2,8.16-4.36,8a1.14,1.14,0,0,0-1.07.71C56.06,92.78,53.37,91.86,55.17,93.8Z"/><path class="cls-14" d="M312.45,131.16s-19.67,5.63-23.61,7-7.43,3.1-7.43,3.1a4.51,4.51,0,0,0-4.29-1.69,22.92,22.92,0,0,0-4.87,1.69s-3.43-1.13-4.24,0a12.33,12.33,0,0,0-1.39,2.81s-.2-1.65-2.91-1.25a7.45,7.45,0,0,0-4.4,2.65s-7.06-2-9.57-1.12-4.21,4.5-4.21,4.5-6.36-3.94-7.68-3.66-3,2.12-3,2.12-3.93-2.4-5.06-1.55a6.73,6.73,0,0,0-1.69,3.09s-4.22,2-5.34,2.25c-2.53-2-7,2-7,2s-.28-7-2.53-5.76-6.47-3.23-8.72,0c-1.41-2.68-5.63.13-6.19,2.66-1.69-1.68-4.5.29-4.5.29s-3.37-4.78-5.06-2.95-2.53,2.95-2.53,2.95-4.78-.57-4.5,2.81c-2.25-2-7.32,3.94-7.32,3.94s-4.78-2.25-6.46,0a13.56,13.56,0,0,0-7-2.54s-8.92-4.21-7.55,4.5c-5.66.29-8.2,3.63-8.2,3.63s-4.07-2.64-5.62,1.58c-3.66-5.35-9.42-5.63-10.83-1.41-2.25-2-5.2,2.95-5.2,2.95s-4.83,1-4.6,3.52c-1.45-4.78-6-2.39-6-2.39s-1.55-7.88-3.37-5.63-1.69,3-1.69,3a7.09,7.09,0,0,0-5.91,4.36,21.31,21.31,0,0,0-5.48-5.49s-.85-5.9-2.81-5.62S92,160.83,90,161.11s-3.12-.56-5.51-.14-3.66-.14-4.22,1.13-1,3.37-2.11,3.51-5.21,1.13-5.49,2.54.85,2.25-.84,2.81-4.36.84-6.19,2.81,1,1-2.67,3.52-4.22,2.25-4.92,3.37-2-8.16-4.36-8-1.41-7.6-5.06-7.88-5.21,2.67-8.72,1.83-2.39-4.08-4.64-4.92c0,0-5.07-9.71-7.74-7,.42-4.36-5.48-5.49-5.48-5.49s-3.94,7.31-5.77,5.91-.14-3.8-3.51-2.53-4.36,5.62-4.36,5.62l-4.5-.84-.71-26.16Z"/></g></g></svg>