<svg xmlns="http://www.w3.org/2000/svg" xmlns:xlink="http://www.w3.org/1999/xlink" viewBox="0 0 750.21 224.06"><defs><style>.cls-1{fill:url(#linear-gradient);}.cls-2{fill:url(#linear-gradient-2);}.cls-3{fill:#e84d4d;opacity:0.2;}.cls-4,.cls-6{fill:#f7f7f7;}.cls-4,.cls-5{opacity:0.21;}</style><linearGradient id="linear-gradient" x1="375.21" y1="-93.48" x2="375.21" y2="151.78" gradientUnits="userSpaceOnUse"><stop offset="0" stop-color="#ffdbd1"/><stop offset="0.05" stop-color="#ffd4cb"/><stop offset="0.3" stop-color="#ffb7b5"/><stop offset="0.54" stop-color="#ffa2a5"/><stop offset="0.77" stop-color="#ff959b"/><stop offset="1" stop-color="#ff9198"/></linearGradient><linearGradient id="linear-gradient-2" x1="375.1" y1="-93.48" x2="375.1" y2="151.78" xlink:href="#linear-gradient"/></defs><g id="Layer_2" data-name="Layer 2"><g id="OBJECTS"><rect class="cls-1" x="0.21" width="750" height="224.06"/><rect class="cls-2" width="750.21" height="224.06"/><path class="cls-3" d="M.21,155.9c43,2.26,251.44-40.91,340.87-24.38s122.21,69.68,236.6,34.24,172.53-40,172.53-40v98.31H.21Z"/><path class="cls-4" d="M281.51,181.27c0,3.42-16.78,6.2-37.5,6.2s-37.5-2.78-37.5-6.2,16.79-6.21,37.5-6.21S281.51,177.84,281.51,181.27Z"/><ellipse class="cls-4" cx="263.55" cy="165.26" rx="10.53" ry="1.77"/><g class="cls-5"><ellipse class="cls-6" cx="543.45" cy="155.3" rx="7.69" ry="1.85"/><ellipse class="cls-6" cx="484.87" cy="166.31" rx="25.42" ry="3.72"/><ellipse class="cls-6" cx="569.01" cy="178.21" rx="35.75" ry="5.79"/><ellipse class="cls-6" cx="424.32" cy="148.87" rx="10.8" ry="2.73"/></g></g></g></svg>