<svg xmlns="http://www.w3.org/2000/svg" xmlns:xlink="http://www.w3.org/1999/xlink" viewBox="0 0 206.73 222.2"><defs><style>.cls-1{fill:url(#linear-gradient);}.cls-2{fill:#1a2b2b;}.cls-3{fill:url(#linear-gradient-2);}.cls-4{fill:none;stroke:#1a2b2b;stroke-miterlimit:10;stroke-width:0.98px;}.cls-5{fill:#d63550;}.cls-6{fill:url(#linear-gradient-3);}.cls-7{fill:url(#linear-gradient-4);}.cls-8{fill:url(#linear-gradient-5);}.cls-9{fill:url(#linear-gradient-6);}.cls-10{fill:url(#linear-gradient-7);}</style><linearGradient id="linear-gradient" x1="187.15" y1="107.16" x2="120.77" y2="217.04" gradientUnits="userSpaceOnUse"><stop offset="0" stop-color="#404a4b"/><stop offset="0.56" stop-color="#2d3a3b"/><stop offset="1" stop-color="#1a2b2b"/></linearGradient><linearGradient id="linear-gradient-2" x1="96.18" y1="6" x2="96.18" y2="131.58" xlink:href="#linear-gradient"/><linearGradient id="linear-gradient-3" x1="162.44" y1="89.66" x2="150.07" y2="110.13" gradientTransform="matrix(0.66, 0.75, -0.75, 0.66, 128.18, -84.17)" xlink:href="#linear-gradient"/><linearGradient id="linear-gradient-4" x1="185.9" y1="160.48" x2="174.91" y2="178.66" gradientTransform="translate(335.02 291.71) rotate(168.51)" xlink:href="#linear-gradient"/><linearGradient id="linear-gradient-5" x1="235.09" y1="155.66" x2="224.11" y2="173.84" gradientTransform="translate(358.34 163.45) rotate(141.79)" xlink:href="#linear-gradient"/><linearGradient id="linear-gradient-6" x1="259.42" y1="172.52" x2="248.44" y2="190.71" gradientTransform="translate(347.7 254.41) rotate(161.2)" xlink:href="#linear-gradient"/><linearGradient id="linear-gradient-7" x1="215.47" y1="232.89" x2="204.49" y2="251.07" gradientTransform="translate(104.5 411.53) rotate(-148.53)" xlink:href="#linear-gradient"/></defs><g id="Layer_2" data-name="Layer 2"><g id="OBJECTS"><path class="cls-1" d="M110.13,222.09h8.76s67.17-92.29,81.35-124.83C158.11,131.55,110.13,222.09,110.13,222.09Z"/><path class="cls-2" d="M134.4,222.09h8.76s41.7-39.72,63.57-79.43C170.57,164.18,134.4,222.09,134.4,222.09Z"/><path class="cls-3" d="M114.3,222h-9.59S64.24,82.24,83,0C100,74.21,114.3,222,114.3,222Z"/><path class="cls-2" d="M64.66,222h8.76s-2.08-67.22-8.76-101.42C86.35,73.06,110.13,25.5,110.13,25.5S67.58,56.79,50.89,120.62Z"/><path class="cls-2" d="M80.51,222h5.95s42-87.07,47.94-143.7C102.3,117.41,80.51,222,80.51,222Z"/><path class="cls-2" d="M164,222h7.92s-8.69-80.54-25.49-108.46C138.87,140.28,164,222,164,222Z"/><path class="cls-2" d="M54.65,222H43.39S0,95.81,0,25.5C20.75,72.89,50.89,212.5,54.65,222Z"/><path class="cls-4" d="M41.72,85.8S43,136.26,28.89,222"/><path class="cls-5" d="M41.68,95.75S26.61,72.18,31.08,69.31C33.27,67.9,36,72,36,72s.59-5.17,3.41-5.64,3.91,6.26,3.91,6.26,1.88-5.32,6.26-4.54S44.46,92.15,41.68,95.75Z"/><path class="cls-4" d="M155.19,72.89s-33.79,86.78-25.45,149.2"/><path class="cls-4" d="M78.05,143.83s9,54.26,15,78.26"/><path class="cls-5" d="M151,85.24s-5.5-27.42-.29-28.48c2.55-.52,3.59,4.25,3.59,4.25s2.42-4.6,5.21-4,1.38,7.25,1.38,7.25,3.68-4.27,7.48-2S154.88,82.9,151,85.24Z"/><path class="cls-5" d="M79.29,153.23S67.44,139.89,70,137.63c1.24-1.11,3.34,1.19,3.34,1.19s-.14-3.31,1.59-3.89S78,138.48,78,138.48s.65-3.54,3.48-3.48S80.68,150.68,79.29,153.23Z"/><path class="cls-6" d="M153.83,96.26c-5.19,4.54-8.78,9.67-10.07,13.85,4.31-.72,9.88-3.6,15.07-8.13s8.78-9.67,10.07-13.85C164.59,88.85,159,91.73,153.83,96.26Z"/><path class="cls-7" d="M127.62,161.24c-1.22-6-3.61-11-6.26-13.87-1.34,3.65-1.57,9.21-.35,15.21s3.6,11,6.26,13.86C128.61,172.79,128.84,167.23,127.62,161.24Z"/><path class="cls-8" d="M78.72,174.36c-3.78-4.81-8.17-8.23-11.82-9.57.44,3.86,2.74,8.93,6.52,13.74s8.18,8.23,11.83,9.57C84.8,184.24,82.51,179.17,78.72,174.36Z"/><path class="cls-9" d="M51.88,163.64c-2-5.79-5-10.48-8-12.95-.87,3.78-.39,9.33,1.58,15.12s5,10.48,8,13C54.33,175,53.85,169.43,51.88,163.64Z"/><path class="cls-10" d="M54.2,97.51C57.39,92.29,59.08,87,59.07,83.1,55.6,84.85,51.64,88.77,48.45,94s-4.88,10.52-4.87,14.41C47.05,106.64,51,102.73,54.2,97.51Z"/></g></g></svg>